<svg width="250" height="268" viewBox="0 0 250 268" fill="none" xmlns="http://www.w3.org/2000/svg">
<path d="M113.868 28.6811C177.909 22.7431 234.637 69.8451 240.574 133.885C246.512 197.926 199.41 254.654 135.37 260.592C71.3288 266.53 14.6008 219.428 8.66282 155.387C2.72482 91.3471 49.8268 34.6181 113.868 28.6811Z" fill="#F9F9F6"/>
<path d="M115.981 5.45416C145.049 5.52916 140.797 8.70915 164.134 24.3322C152.187 20.8272 141.057 19.5652 128.747 18.9702C113.418 18.2252 98.4046 21.8581 83.6606 25.3271C91.4656 19.1201 106.677 6.16116 115.981 5.45416Z" fill="#F9F9F6"/>
<path d="M242.737 105.782C246.569 109.394 248.939 133.022 249.291 138.502C249.775 146.048 247.843 174.654 243.22 179.708C241.696 178.937 241.436 178.763 240.057 177.742C240.093 175.542 242.11 167.407 242.605 164.65C244.141 156.895 244.739 149.331 244.813 141.416C244.922 129.87 240.933 118.742 240.19 107.538C240.157 107.048 242.224 106.075 242.737 105.782Z" fill="#F9F9F6"/>
<path d="M183.914 37.0682C188.062 39.2132 192.1 41.5672 196.012 44.1182C209.362 53.0372 220.849 64.4692 229.831 77.7762C231.27 79.8942 233.367 82.5292 233.873 84.9302L232.983 86.0792L231.021 86.4861C228.586 85.4091 219.223 71.3921 216.506 68.2311C210.226 60.8031 203.058 54.1732 195.162 48.4911C191.317 45.7681 187.184 43.4062 183.424 40.5842C182.933 38.9802 183.283 39.0442 183.914 37.0682Z" fill="#F9F9F6"/>
<path d="M6.04077 107.094L9.99277 109.792C5.07477 127.149 2.60576 144.155 5.37076 162.224C5.90676 165.727 9.30376 176.857 8.86176 179.662C8.43876 179.683 7.28277 179.76 6.98377 179.552C3.53077 176.89 2.81776 168.874 1.98276 164.721C-2.19324 143.967 0.736774 127.117 6.04077 107.094Z" fill="#F9F9F6"/>
<path d="M85.1554 256.9C102.187 260.977 109.283 264.776 128.909 264.129C136.41 263.851 143.866 262.838 151.17 261.104C154.368 260.345 161.098 257.769 163.712 258.84C164.684 260.212 164.489 259.486 164.477 261.042C162.172 261.785 159.851 262.475 157.515 263.113C136.63 268.933 119.591 269.129 98.2994 264.586C93.9814 263.664 88.8454 262.771 85.0314 260.622C84.4414 259.207 84.8544 258.708 85.1554 256.9Z" fill="#F9F9F6"/>
<path d="M117.153 22.4532C127.175 21.0572 152.677 23.0912 161.838 27.2062C162.327 28.7842 162.174 27.9872 161.442 30.0172C158.11 30.9012 138.755 26.3572 132.244 25.8312C120.515 24.6052 109.684 26.3222 98.2685 28.8682C95.4225 29.5032 89.3805 31.8481 86.8545 30.8641L86.5615 30.0491C88.2965 24.9661 111.368 23.0122 117.153 22.4532Z" fill="#F9F9F6"/>
<path d="M65.1847 37.6862C66.5327 39.0162 66.1687 38.2502 66.4767 39.9792C64.8327 42.8672 54.7557 48.1141 50.7477 51.1631C46.9117 54.1021 43.2687 57.2851 39.8407 60.6921C35.3097 65.0691 31.1677 69.8312 27.4587 74.9232C25.3527 77.8762 20.6587 85.9062 18.3387 87.9902C17.3887 87.2412 17.1287 86.9621 16.2997 86.0701C16.0127 82.6771 20.3517 77.4772 22.3297 74.7382C33.5677 59.1762 48.3757 46.9412 65.1847 37.6862Z" fill="#F9F9F6"/>
<path d="M17.9614 200.156C20.2314 202.531 25.7344 213.191 29.4804 217.488C36.1244 225.107 42.8504 232.785 51.2364 238.746C55.9404 242.089 61.2264 244.737 65.7334 248.174C65.9704 249.489 65.4564 249.748 64.6474 251.262C51.3504 243.186 39.4154 234.059 29.1304 222.115C26.0924 218.587 15.9254 207.083 16.0684 201.932C16.0854 201.306 17.3064 200.641 17.9614 200.156Z" fill="#F9F9F6"/>
<path d="M230.973 200.226C232.204 201.084 232.403 201.209 233.438 202.277C232.951 205.573 229.245 210.003 227.242 212.733C215.728 228.42 201.756 239.686 185.706 250.371C185.178 250.569 185.543 250.482 184.582 250.295L184.182 249.266C185.136 246.993 199.15 238.012 201.993 235.579C213.826 225.455 222.276 212.948 230.973 200.226Z" fill="#F9F9F6"/>
<path d="M13.8384 88.9581C15.4024 89.6171 15.3884 89.5042 16.4604 90.7812C16.9134 94.0292 12.6374 102.763 11.0784 106.573C9.78938 105.782 8.18239 105.041 8.00639 103.641C7.43939 99.1312 11.5784 92.4491 13.8384 88.9581Z" fill="#F9F9F6"/>
<path d="M238.868 181.431C240.232 182.196 240.806 182.344 241.503 183.74C241.759 188.212 237.965 194.482 235.885 198.62C234.514 198.084 234.092 198.096 233.249 196.915C232.963 193.682 237.287 185.083 238.868 181.431Z" fill="#F9F9F6"/>
<path d="M8.51879 181.933C11.5138 183.02 15.4928 193.289 15.9958 196.592C16.1298 197.471 15.3948 197.913 14.8108 198.605L13.1888 198.088C10.4828 195.306 8.11977 189.336 7.45177 185.502C7.08377 183.39 7.45379 183.395 8.51879 181.933Z" fill="#F9F9F6"/>
<path d="M166.208 28.4252C170.173 30.2202 176.601 32.1371 179.814 35.0121C180.809 35.9021 180.278 37.4751 180.096 38.9081C176.38 37.4511 167.903 34.6822 165.631 31.5132C165.194 30.9022 165.914 29.3842 166.208 28.4252Z" fill="#F9F9F6"/>
<path d="M234.773 88.4172C237.665 90.1742 241.043 98.8802 241.069 102.302C241.074 102.963 239.858 103.7 239.328 104.138C236.67 103.046 232.976 93.1761 232.949 90.1501C232.942 89.4671 234.209 88.8242 234.773 88.4172Z" fill="#F9F9F6"/>
<path d="M69.0917 249.831C72.0177 250.7 79.1217 253.153 80.9917 255.639C81.9167 256.87 81.2277 257.938 80.7897 259.462C77.5117 258.235 69.9387 255.981 68.4587 252.801C68.1467 252.129 68.8087 250.726 69.0917 249.831Z" fill="#F9F9F6"/>
<path d="M179.048 250.711C180.311 250.702 180.674 250.971 181.383 251.629L181.349 252.935C179.429 255.668 173.11 258.356 169.911 259.897C168.207 259.234 167.607 258.959 167.651 257.176C169.27 254.607 175.977 252.069 179.048 250.711Z" fill="#F9F9F6"/>
<path d="M81.4416 29.7092C82.8246 30.1292 82.1816 29.8751 83.3436 31.0981L83.3086 32.0201C81.4756 34.7051 74.6706 37.3502 71.4056 38.8372C70.5956 38.6352 70.6356 38.4651 69.8956 37.8221L69.8496 36.4761C71.7176 33.7301 78.1746 31.1972 81.4416 29.7092Z" fill="#F9F9F6"/>
<path d="M116.143 0.40921C118.746 -0.0707898 131.206 -0.326832 134.481 0.791168C135.252 1.05517 135.212 1.90019 135.553 3.02219C130.451 3.03219 123.064 3.3612 117.974 2.3912C116.76 2.1602 116.681 1.44121 116.143 0.40921Z" fill="#F9F9F6"/>
<path d="M181.649 257.215C182.799 258.192 182.428 257.878 183.212 259.291L182.83 260.266C180.889 261.947 177.36 263.154 174.876 264.19C173.667 263.887 174.238 264.133 173.281 263.165L173.61 262.072C176.065 259.974 178.786 258.732 181.649 257.215Z" fill="#F9F9F6"/>
<path d="M168.052 24.2392C171.505 24.0232 178.654 25.9622 179.303 29.9012C175.801 30.9662 169.77 27.4152 168.052 24.2392Z" fill="#F9F9F6"/>
<path d="M75.7508 25.1111C76.9148 25.4781 77.1988 25.7922 77.5498 26.8102C76.5898 29.0812 72.5328 30.4102 70.2388 31.3702C69.3928 31.4562 69.1488 31.3552 68.2908 31.2482L67.9038 30.6592C68.5548 28.3752 73.6258 26.2121 75.7508 25.1111Z" fill="#F9F9F6"/>
<path d="M66.9326 256.552C69.3046 257.661 73.9596 259.56 75.6526 261.528C76.1166 262.068 75.8056 262.472 75.6186 263.44C73.0396 263.16 67.9446 261.615 66.5526 259.249C66.1586 258.579 66.7176 257.361 66.9326 256.552Z" fill="#F9F9F6"/>
<path d="M238.895 87.0062C242.97 88.2932 245.733 95.6922 245.396 99.5082L244.903 99.5692C243.077 98.7342 239.868 89.4932 238.895 87.0062Z" fill="#F9F9F6"/>
<path d="M8.95043 88.1622L9.22143 88.6002C9.40343 91.2662 5.57641 99.0212 4.29641 101.883C1.37541 99.0302 6.86043 90.6172 8.95043 88.1622Z" fill="#F9F9F6"/>
<path d="M244.976 185.615L245.599 186.497C245.977 190.112 242.597 196.642 240.409 199.394C239.152 197.664 243.963 187.95 244.976 185.615Z" fill="#F9F9F6"/>
<path d="M3.68066 187.598C6.12266 189.369 8.69666 196.747 9.11566 199.724C5.20666 198.696 4.23866 191.088 3.68066 187.598Z" fill="#F9F9F6"/>
</svg>
