<svg width="201" height="418" viewBox="0 0 201 418" fill="none" xmlns="http://www.w3.org/2000/svg">
<path d="M29.5839 12.9568C35.2589 12.3398 49.6969 12.7418 55.6689 13.0308C100.786 15.2498 146.139 22.5508 188.841 37.5588C192.048 38.6858 202.382 42.1078 200.364 46.5028C196.575 49.1878 189.292 49.1718 184.646 49.3658C133.615 50.9998 75.0869 39.1178 26.1309 25.5728C22.6919 24.6208 11.2889 21.1468 12.9379 16.4238C16.6279 13.3048 24.6099 13.3128 29.5839 12.9568Z" fill="#F9F9F6"/>
<path d="M97.4946 299.606L98.6006 300.567C100.165 305.165 98.9136 366.338 98.6936 375.816C92.1016 372.665 82.8896 365.113 77.0106 360.42C71.3956 355.89 65.9076 351.899 60.2876 347.179C63.6346 341.974 72.2886 331.316 76.2946 326.147C82.1936 318.535 91.0786 306.314 97.4946 299.606Z" fill="#F9F9F6"/>
<path d="M108.779 300.328C112.825 301.214 114.22 303.702 116.562 307.07C124.529 318.528 132.843 329.823 140.7 341.346C135.782 346.873 130.469 352.196 125.292 357.495C120.374 362.617 114.421 369.134 109.219 373.758C108.188 351.278 108.849 323.153 108.779 300.328Z" fill="#F9F9F6"/>
<path d="M101.262 163.652C102.768 163.69 103.146 163.73 104.628 164.002C106.688 166.909 105.739 269.95 105.658 282.862C104.177 282.863 103.239 283.057 102.08 282.191C101.075 280.368 101.582 273.64 101.588 271.163L101.631 244.349C101.663 217.5 100.979 190.489 101.262 163.652Z" fill="#F9F9F6"/>
<path d="M94.0468 292.576C94.8438 295.281 95.1638 296.791 93.3398 299.178C75.4788 322.554 57.5208 345.958 39.4708 369.192C31.7358 379.149 24.1098 389.164 16.1828 398.895C14.9948 397.304 14.9988 396.29 16.2478 394.545C18.6318 391.215 21.1618 387.951 23.6198 384.668L38.6528 364.515C56.3588 340.787 75.3078 315.5 94.0468 292.576Z" fill="#F9F9F6"/>
<path d="M101.833 45.5218C103.692 46.0288 103.816 45.7468 104.978 46.9128C106.059 55.9888 105.629 73.3578 105.573 82.9428L105.132 145.127C103.536 145.097 103.601 145.174 102.182 144.496C100.841 142.285 102.03 105.739 101.739 99.4038C101.244 88.6128 101.352 74.9408 101.182 63.8498C101.105 58.8888 101.089 50.4078 101.833 45.5218Z" fill="#F9F9F6"/>
<path d="M114.347 293.593C121.268 300.457 171.605 373.341 173.319 380.93C165.202 373.12 152.439 352.326 145.304 342.421C137.455 331.724 129.72 320.944 122.1 310.082C119.546 306.46 116.269 301.953 114.02 298.05C113.685 297.468 114.221 294.419 114.347 293.593Z" fill="#F9F9F6"/>
<path d="M102.18 300.057C103.685 300.103 103.962 300.154 105.444 300.465C106.808 304.106 105.917 366.163 105.879 374.928C103.86 374.897 103.18 375.203 101.94 374.152C101.284 367.173 101.741 352.039 101.852 344.667C102.121 329.799 102.231 314.928 102.18 300.057Z" fill="#F9F9F6"/>
<path d="M99.7798 8.86679L100.552 8.7948C111.994 7.7508 120.164 11.0238 128.933 18.3718C125.577 17.7828 122.215 17.2208 118.849 16.6868C108.589 14.9238 98.2688 13.6918 87.9468 12.3278C91.9828 10.5338 95.4968 9.74379 99.7798 8.86679Z" fill="#F9F9F6"/>
<path d="M100.629 148.477C104.2 148.257 107.565 148.385 111.136 148.471C111.248 151.313 111.761 157.026 110.696 159.632C110.394 160.371 109.949 160.191 108.862 160.411C105.177 160.458 101.371 160.286 97.6779 160.168C97.5079 157.652 97.0459 152.372 97.9689 150.042C98.4849 148.74 99.3389 148.821 100.629 148.477Z" fill="#F9F9F6"/>
<path d="M97.8629 286.241C101.702 286.215 106.788 285.337 109.864 287.126C112.16 289.923 111.155 293.283 110.781 297.092L97.7549 296.693C97.6969 293.208 97.7329 289.723 97.8629 286.241Z" fill="#F9F9F6"/>
<path d="M0.855816 404.466L2.19381 405.326C4.55781 406.877 16.7968 411.461 17.0148 411.821C16.5198 413.926 16.1598 414.15 14.7378 415.89C5.08182 421.199 -2.63918 415.515 0.855816 404.466Z" fill="#F9F9F6"/>
<path d="M103.314 377.947C106.235 377.757 109.022 377.065 110.202 380.369L109.657 381.3C108.119 382.485 107.041 382.249 105.066 382.261C102.568 382.337 99.2877 383.036 98.1787 380.443C99.6357 378.447 100.661 378.579 103.314 377.947Z" fill="#F9F9F6"/>
<path d="M105.711 0.0157763C108.238 0.0357763 111.06 -0.284219 112.989 1.21478C114.097 2.77778 113.761 3.97178 113.643 5.93478C111.273 5.80278 108.371 5.97179 106.527 4.74179C105.369 3.22879 105.667 1.97878 105.711 0.0157763Z" fill="#F9F9F6"/>
</svg>

