<svg width="520" height="625" viewBox="0 0 520 625" fill="none" xmlns="http://www.w3.org/2000/svg">
<path d="M202.825 114.548C203.321 114.47 204.835 114.312 205.141 114.633C207.892 117.036 210.573 121.798 213.293 124.031C229.127 137.025 252.755 137.096 262.737 117.036C274.07 119.883 303.613 132.234 310.07 141.618C321.768 158.617 325.318 184.852 332.338 204.449C333.954 208.961 335.713 214.967 336.896 219.681C321.953 217.612 315.267 217.307 300.095 217.547C300.186 211.744 303.209 181.814 301.761 178.904L301.405 179.024C298.262 182.716 298.996 188.994 298.682 193.592C298.055 201.727 297.488 209.865 296.981 218.008C280.131 220.219 255.841 225.889 242.921 237.354C242.674 241.059 243.031 243.786 242.355 247.621C236.613 253.121 239.037 261.938 244.294 267.012C244.442 268.949 244.473 271.227 244.551 273.197C239.721 272.909 223.215 272.634 220.059 271.579C218.025 269.122 222.784 266.379 223.719 263.396C225.622 257.327 226.11 252.695 221.426 247.995C222.118 240.742 223.186 238.498 217.396 233.398C216.773 229.699 216.342 227.648 215.3 224.056C209.554 209.418 189.343 201.474 176.186 195.235C174.309 194.345 170.293 191.615 168.335 190.356C170.965 185.521 172.563 185.472 174.178 179.392L173.781 178.754C170.527 180.116 166.947 186.404 164.929 189.538C154.923 188.548 150.406 189.143 140.603 190.613C135.578 188.353 124.412 183.993 119.576 187.747L119.779 188.453C123.837 189.88 128.295 189.107 134.828 191.252C130.547 192.392 115.44 193.845 113.347 196.938C113.706 197.583 114.233 198.184 115.056 198.103C132.77 196.366 154.111 186.792 171.242 195.573C160.59 198.237 155.262 200.176 153.844 212.033C129.351 210.141 115.489 212.435 92.4047 219.157C89.1487 215.288 95.0337 202.763 97.7667 199.152C115.022 176.356 133.535 149.082 155.53 130.996C162.684 125.113 193.013 116.58 202.825 114.548Z" fill="#F9F9F6"/>
<path d="M405.877 361.19C423.391 371.616 428.361 420.794 432.385 439.887C438.543 469.107 444.609 498.918 450.19 528.227C429.128 541.596 392.54 546.237 368.222 541.009C367.541 538.67 367.08 535.967 366.6 533.555L355.036 458.842C356.552 457.568 357.308 457.077 358.405 455.466C359.016 451.495 356.793 450.719 353.483 449.155C348.136 421.118 341.495 421.431 318.774 407.514C342.179 408.118 384.813 407.696 404.779 394.709C405.269 388.235 403.825 387.232 407.46 381.895C405.75 374.921 405.473 368.373 405.877 361.19Z" fill="#F9F9F6"/>
<path d="M60.2335 404.31C83.6685 408.991 125.749 412.076 149.48 409.888C140.595 417.139 132.586 425.399 125.613 434.502C123.032 437.937 120.146 443.408 117.622 446.243C113.676 450.677 113.115 445.779 108.206 452.751L101.068 451.126C100.214 453.266 99.5675 455.497 98.8795 457.7C100.445 458.524 102.281 459.663 103.84 460.57C104.376 464.91 104.762 465.85 107.841 468.905C103.555 482.632 100.912 494.842 101.389 509.315C101.726 520.996 103.407 528.368 105.995 539.504C83.1865 539.848 54.4445 536.159 36.0005 521.786C40.5635 493.491 47.7425 464.796 53.1445 436.59C55.1045 426.351 57.2995 414.214 60.2335 404.31Z" fill="#F9F9F6"/>
<path d="M245.091 34.6246C251.796 34.1066 256.254 35.2596 262.461 37.4906C262.663 39.2896 262.82 41.0936 262.932 42.9006C263.943 58.2876 264.33 81.8986 253.303 93.9136C241.557 106.713 227.019 100.698 216.277 90.4457C214.421 88.3457 213.695 87.3426 212.294 84.9996C210.619 82.1966 209.18 76.0966 206.62 74.5756C196.954 78.4566 190.932 64.1767 197.125 58.6657C200.454 55.7027 202.772 62.1796 205.578 63.0556C207.26 61.3906 207.263 48.1187 208.025 43.7317C209.435 44.0707 212.68 44.8656 214.007 44.6546C227.292 42.5506 230.436 36.2066 245.091 34.6246Z" fill="#F9F9F6"/>
<path d="M388.608 573.743C398.225 582.706 402.507 583.975 415.434 581.323C430.387 592.53 441.796 594.526 456.052 603.109C453.951 607.194 453.25 608.862 451.695 613.27C451.366 614.021 451.563 613.67 450.584 614.189C431.434 612.814 403.203 608.64 385.081 602.93C384.867 593.854 385.534 582.351 388.608 573.743Z" fill="#F9F9F6"/>
<path d="M231.103 0.137652C249.359 -1.26635 260.363 8.13465 264.952 25.3707C247.484 22.3877 237.346 22.6717 220.588 29.6257C212.999 32.9307 204.701 38.9817 196.865 43.0987L196.783 42.3867C194.089 17.5067 206.107 2.47765 231.103 0.137652Z" fill="#F9F9F6"/>
<path d="M170.793 199.037C183.345 198.411 202.912 211.336 210.711 220.833C213.941 224.767 216.553 244.129 210.907 246.93C210.394 246.692 210.02 246.749 209.981 246.112C209.68 241.234 212.56 220.229 206.42 218.7C205.897 219.422 205.6 219.856 205.843 220.761C208.347 230.116 208.292 239.175 205.171 248.401C204.598 250.094 204.058 250.521 202.431 251.238L201.477 250.855C200.276 248.897 200.993 243.233 201.274 240.726C202.02 234.047 201.511 228.835 200.18 222.28C199.576 219.773 199.606 219.565 198.076 217.581L197.219 217.649C195.797 221.617 202.679 247.892 194.474 250.476C188.756 245.969 193.721 225.771 187.584 218.755L187.089 218.84C186.165 223.741 189.555 242.654 183.561 245.058C181.254 242.558 181.613 230.973 180.186 226.126C177.228 216.082 151.266 216.925 158.941 204.733C161.124 201.265 167.004 199.75 170.793 199.037Z" fill="#F9F9F6"/>
<path d="M93.4545 570.342C94.4855 571.402 94.6895 571.377 94.9745 572.772C93.5785 576.5 80.8315 600.923 78.4785 604.465C63.0245 608.563 53.7534 611.305 37.9474 613.747C37.4464 612.544 36.9544 610.642 36.5724 609.332C35.3004 605.428 34.0085 603.406 31.9185 599.949C45.0055 591.142 57.3845 588.248 69.6395 575.659C79.8375 578.547 85.9615 578.31 93.4545 570.342Z" fill="#F9F9F6"/>
<path d="M214.583 93.6517C219.815 96.6477 223.996 101.306 231.094 103.227C239.844 105.596 244.292 103.676 251.807 99.8287C252.583 110.278 248.714 112.424 259.966 116.117C258 120.34 256.796 121.598 253.536 124.655L252.767 125.193C236.881 136.101 218.496 128.386 208.562 113.744L213.957 112.131C214.548 105.798 214.533 100.006 214.583 93.6517Z" fill="#F9F9F6"/>
<path d="M239.646 290.852C240.112 290.816 240.578 290.787 241.044 290.763C247.355 290.439 245.96 296.294 245.931 301.043C237.332 307.154 239.354 311.907 244.304 319.927L244.395 339.854C248.915 344.971 251.807 346.789 257.874 349.598C258.303 357.763 258.098 367.01 258.081 375.267C257.674 375.644 257.961 375.465 257.095 375.514C252.562 372.783 247.365 369.32 243.438 365.789C243.073 363.99 242.603 362.246 242.146 360.47L234.813 360.442C234.687 354.396 233.98 308.663 235.037 305.943C239.424 303.353 239.014 302.817 239.357 297.779C239.511 295.5 239.563 293.14 239.646 290.852Z" fill="#F9F9F6"/>
<path d="M416.37 544.13C417.116 543.94 417.336 544.065 418.163 544.142C419.417 545.848 419.926 558.862 420.166 562.022C411.414 566.799 411.585 569.236 413.886 578.536C406.87 580.01 403.738 579.987 397.352 576.979C394.619 575.164 393.716 574.271 391.759 571.687C390.908 563.212 389.501 554.912 388.784 546.41C398.396 546.37 406.912 545.447 416.37 544.13Z" fill="#F9F9F6"/>
<path d="M63.1315 538.172C75.4185 540.833 81.1475 540.842 92.6365 542.51C91.6055 550.976 91.6375 560.488 89.9995 568.73C89.8335 569.56 88.4015 571.016 87.7575 571.659C87.3385 571.903 86.9165 572.139 86.4895 572.368C81.1515 575.213 76.5845 574.708 71.1135 572.976C73.4315 562.495 72.3645 559.687 61.9385 556.101C62.5825 550.144 62.9805 544.162 63.1315 538.172Z" fill="#F9F9F6"/>
<path d="M384.958 606.199C408.522 613.396 442.593 617.18 467.516 618.127C470.831 618.253 475.724 617.893 479.062 617.526C481.625 617.243 482.889 616.513 485.781 616.582L486.268 617.415C486.091 619.377 486.04 619.321 485.205 620.996C470.8 627.975 438.297 621.618 422.393 619.099C416.145 618.109 389.229 614.231 385.906 611.475C384.84 609.759 385.03 608.296 384.958 606.199Z" fill="#F9F9F6"/>
<path d="M371.564 276.264L373.816 276.477C376.799 278.35 379.586 281.24 382.669 283.142C392.753 289.365 400.44 292 407.269 302.359C404.796 302.47 402.219 302.512 399.737 302.584C399.734 302.582 397.868 301.21 397.918 301.236C394.277 299.378 390.931 293.303 387.84 291.511L387.022 291.945L386.643 293.2C389.297 297.69 399.88 307.232 399.436 310.8L398.273 311.638C394.598 312.222 391.961 310.482 389.159 308.308C384.923 305.021 380.93 302.428 376.214 299.864C374.936 295.585 374.751 294.42 371.646 291.298C371.481 286.424 371.571 281.169 371.564 276.264Z" fill="#F9F9F6"/>
<path d="M222.605 305.162C222.992 305.376 223.349 305.511 223.627 305.866C226.022 308.928 225.044 352.619 224.667 359.476L219.721 360.151C217.656 362.881 213.649 368.488 209.879 368.223C208.716 367.153 209.103 367.371 208.988 365.19C208.509 360.58 208.198 360.721 205.027 357.422C209.319 353.532 214.793 350.75 217.637 345.184C221.488 337.651 219.298 328.808 216.949 321.273C222.876 315.531 221.954 313.529 222.605 305.162Z" fill="#F9F9F6"/>
<path d="M15.4396 595.38C26.6086 595.136 32.0086 604.301 34.5256 613.806C29.8726 614.508 25.0436 614.411 20.3486 614.352C12.5026 613.662 7.8176 613.278 0.787598 609.849C4.0566 602.075 8.28361 599.054 15.4396 595.38Z" fill="#F9F9F6"/>
<path d="M74.8764 608.488C75.2634 608.483 74.9634 608.45 76.0344 608.795C76.0254 610.477 74.6314 612.495 73.7664 614.054C69.6844 614.691 60.7334 617.292 56.4854 618.417C39.8834 622.813 18.3105 626.853 1.91545 619.859C0.427453 618.191 -0.207565 617.099 0.0594345 614.932C2.24743 613.585 7.73744 615.465 10.3484 616.009C31.3564 620.389 54.6314 613.896 74.8764 608.488Z" fill="#F9F9F6"/>
<path d="M243.3 26.6176C249.814 25.9386 277.94 28.0676 276.326 38.1166C276.024 38.3216 275.722 38.5267 275.42 38.7317C268.461 37.1267 261.618 33.1926 254.435 32.1126C248.359 31.1996 246.273 31.4037 240.585 32.0787C225.965 35.1407 220.666 44.5406 207.426 40.4846C217.42 32.6566 230.788 28.1356 243.3 26.6176Z" fill="#F9F9F6"/>
<path d="M469.945 597.482C477.599 598.554 484.044 605.807 486.285 612.917C481.139 614.423 477.3 614.721 471.969 614.984C466.049 615.132 460.59 615.117 454.714 614.337C456.964 605.652 461.098 599.904 469.945 597.482Z" fill="#F9F9F6"/>
<path d="M483.339 296.645C485.591 296.41 488.616 295.964 490.577 296.989L490.806 297.957L490.202 298.847C484.661 300.598 470.3 302.224 464.098 303.01C446.334 305.324 428.523 307.265 410.678 308.831C408.217 309.159 403.188 310.43 402.612 307.057C403.615 306.068 404.974 305.461 406.385 305.335C432.017 303.038 457.701 298.614 483.339 296.645Z" fill="#F9F9F6"/>
<path d="M54.9297 559.52C68.5827 558.203 74.1257 565.852 64.4847 576.718C63.9447 576.725 53.6127 571.797 50.8257 570.846C51.7447 566.874 52.4037 562.739 54.9297 559.52Z" fill="#F9F9F6"/>
<path d="M423.616 564.489C430.371 564.522 430.606 570.572 432.119 576.026C428.834 577.479 426.38 579.043 423.316 580.904C418.216 583.557 413.459 572.607 416.676 568.373C419.038 565.264 419.994 565.427 423.616 564.489Z" fill="#F9F9F6"/>
<path d="M29.0348 587.329C33.5658 588.511 35.8987 589.413 39.9857 591.552C36.3197 593.817 34.1768 595.045 30.2888 596.853L29.5878 597.111C26.5348 595.58 23.4948 594.022 20.4678 592.439C23.5228 590.252 25.6998 589.111 29.0348 587.329Z" fill="#F9F9F6"/>
<path d="M204.46 42.4196C205.358 44.1526 204.14 54.3496 203.915 56.7296L199.571 54.3876C198.645 54.3496 199.159 54.4517 198.076 53.9077C197.159 51.9017 197.146 49.3226 196.951 47.0556C200.084 44.5726 200.969 44.0876 204.46 42.4196Z" fill="#F9F9F6"/>
<path d="M458.68 591.892C460.446 591.998 464.361 594.314 466.061 595.237C463.008 597.092 461.468 598.157 458.662 600.367C455.49 598.926 453.207 597.709 450.159 596.003C452.89 594.362 455.767 593.18 458.68 591.892Z" fill="#F9F9F6"/>
<path d="M96.8925 601.017L97.2435 601.347C97.7835 603.012 97.8885 602.943 97.5685 604.626C95.2295 608.233 88.7375 609.751 84.6865 610.89L84.3265 610.631C84.1005 608.472 86.4045 605.983 87.7615 604.307L96.8925 601.017Z" fill="#F9F9F6"/>
<path d="M384.589 308.898C386.726 309.632 394.265 316.148 394.703 318.431L393.669 319.582C389.47 319.617 386.839 318.326 384.146 315.108C381.641 312.114 382.003 310.825 384.589 308.898Z" fill="#F9F9F6"/>
<path d="M36.1427 582.417C41.0147 583.892 43.6617 584.562 48.1247 587.038C46.8317 587.931 45.1157 588.916 43.7527 589.751L43.0677 589.847C39.7037 587.808 34.4857 586.408 32.3447 584.839C32.9587 583.768 34.8357 583.092 36.1427 582.417Z" fill="#F9F9F6"/>
<path d="M449.687 587.418C451.588 587.044 454.035 588.763 455.779 589.732C452.218 591.415 450.132 592.56 446.762 594.61C443.993 593.674 443.066 593.075 440.617 591.628C443.759 589.463 446.178 588.613 449.687 587.418Z" fill="#F9F9F6"/>
<path d="M442.73 582.519C444.125 582.878 445.83 584.226 447.09 585.097C443.696 586.554 440.198 587.935 437.077 589.893C435.175 589.305 433.611 589.016 432.688 587.329C434.077 584.814 439.688 583.527 442.73 582.519Z" fill="#F9F9F6"/>
<path d="M96.3207 586.75C97.4007 589.547 97.4867 594.242 97.5327 597.213C95.2067 598.413 93.1176 599.11 90.6716 600.005L90.0086 599.91C89.8476 597.634 94.8957 589.28 96.3207 586.75Z" fill="#F9F9F6"/>
<path d="M42.6938 577.798C45.5318 578.632 53.9458 580.212 53.7588 583.477L51.6758 584.976C47.4568 583.154 43.8928 581.675 39.5718 580.149C40.0048 579.068 41.4248 578.566 42.6938 577.798Z" fill="#F9F9F6"/>
<path d="M266.849 57.0336C272.946 59.3986 269.757 67.2787 267.159 71.1227L266.124 71.6186C264.895 69.4476 266.316 59.8346 266.849 57.0336Z" fill="#F9F9F6"/>
<path d="M375.152 308.635C379.432 310.362 382.293 315.084 382.715 319.565C375.907 319.111 374.703 314.756 375.152 308.635Z" fill="#F9F9F6"/>
<path d="M436.044 577.946C437.369 578.591 437.323 578.586 438.408 579.599C437.617 581.537 430.634 584.058 427.841 585.5C426.494 585.213 426.568 585.175 425.43 584.36L425.396 583.572C427.327 581.045 433.006 579.154 436.044 577.946Z" fill="#F9F9F6"/>
<path d="M46.6208 573.889C50.1998 573.647 58.5098 576.017 60.2708 579.154L59.7828 580.629C57.9568 580.765 47.6328 576.232 46.2568 575.12L46.6208 573.889Z" fill="#F9F9F6"/>
<path d="M403.921 312.422C404.777 312.362 405.488 312.428 406.348 312.466L407.073 313.277C406.456 316.395 403.492 316.855 400.815 316.828C399.361 316.51 398.399 316.457 397.271 315.497C398.065 314.532 402.239 313.17 403.921 312.422Z" fill="#F9F9F6"/>
<path d="M513.688 293.496C515.704 293.314 517.919 293.01 519.595 294.188C520.195 296.013 520.146 295.045 519.215 297.192C516.745 297.522 515.35 297.852 513.317 296.531C512.883 294.608 512.885 295.594 513.688 293.496Z" fill="#F9F9F6"/>
<path d="M371.637 264.859C373.706 266.893 375.113 270.14 374.883 273.064C369.496 273.597 371.179 268.749 371.637 264.859Z" fill="#F9F9F6"/>
<path d="M266.022 38.8347C266.94 39.4807 266.733 39.3647 267.47 40.2607C267.94 43.0917 267.29 45.3697 266.772 48.2157L266.436 48.0587C265.622 46.0327 265.639 41.0387 266.022 38.8347Z" fill="#F9F9F6"/>
</svg>
