<svg width="194" height="384" viewBox="0 0 194 384" fill="none" xmlns="http://www.w3.org/2000/svg">
<path d="M82.6399 8.77027C95.9059 7.71027 98.0799 14.4953 107.53 15.4153C127.07 17.3173 144.608 18.1323 164.014 22.0123C155.069 22.4743 143.61 22.1813 134.52 22.1533C119.353 22.0893 104.186 22.1113 89.0189 22.2203C62.4039 22.5273 34.1719 23.9423 7.6499 22.9843C18.7879 20.6913 30.0469 19.0253 41.3719 17.9943C49.2729 17.2243 58.3679 16.8303 66.0569 15.3053C70.9909 14.3263 77.2339 10.3563 82.6399 8.77027Z" fill="#F9F9F6"/>
<path d="M108.595 24.9513C127.646 24.7383 149.417 24.8073 168.341 25.8183C140.302 32.9023 89.826 32.2693 60.656 32.1983C42.969 31.9943 16.771 30.7253 0 26.5833C14.075 25.8063 29.231 26.0953 43.428 25.9383L108.595 24.9513Z" fill="#F9F9F6"/>
<path d="M85.168 129.929C86.48 129.906 87.238 129.761 88.4 130.367C89.35 132.344 89.525 240.902 88.497 248.699C87.972 248.644 87.449 248.58 86.926 248.508C84.756 248.197 85.316 248.52 84.282 247.156C83.742 238.622 83.753 133.016 84.428 130.957C84.559 130.556 84.921 130.272 85.168 129.929Z" fill="#F9F9F6"/>
<path d="M95.7276 258.54C101.993 265.062 176.741 361.421 177.173 362.877L176.239 364.366C173.351 363.803 154.265 338.287 151 334.111L116.097 289.541C109.656 281.3 101.413 271.056 95.1736 262.331C94.5626 261.478 95.3786 259.709 95.7276 258.54Z" fill="#F9F9F6"/>
<path d="M84.2449 263.607C85.8119 263.573 86.909 263.362 88.246 264.121C89.393 266.74 88.7929 334.577 88.6559 341.735C87.0239 341.832 85.76 342.037 84.556 340.926C83.854 335.11 84.166 320.418 84.155 314.143C84.08 297.297 84.1099 280.452 84.2449 263.607Z" fill="#F9F9F6"/>
<path d="M84.2148 46.1663C85.9978 46.1053 86.8807 45.9263 88.5387 46.6113C89.8407 50.5803 88.8848 104.123 88.8138 112.063C87.0158 112.075 86.7317 112.012 85.0287 111.718C83.1737 109.309 84.1988 53.4603 84.2148 46.1663Z" fill="#F9F9F6"/>
<path d="M77.1427 258.537C78.2937 261.628 75.7877 265.409 74.0847 267.923C64.6277 281.882 54.7936 296.334 44.9926 310.01C40.9346 315.673 29.1597 334.498 24.9537 338.055C24.7967 337.697 24.4776 337.018 24.4066 336.65C23.7476 333.241 71.6927 264.657 77.1427 258.537Z" fill="#F9F9F6"/>
<path d="M81.8301 114.988C86.2891 114.781 89.0191 114.958 93.5081 115.296C93.5011 118.145 94.1581 123.847 92.7301 126.034L90.9241 126.28L78.6451 126.337C78.5271 123.781 77.8691 117.476 79.2461 115.581C79.6641 115.005 80.9221 115.088 81.8301 114.988Z" fill="#F9F9F6"/>
<path d="M78.9958 35.4573C86.3048 35.1623 93.8428 35.2473 101.176 35.2463C98.2858 38.0233 96.3588 39.6473 93.1848 42.1143C91.3178 43.3273 88.7488 43.3563 86.4888 43.3713C79.9068 43.4163 76.2779 39.9813 72.0269 35.7603L78.9958 35.4573Z" fill="#F9F9F6"/>
<path d="M190.006 370.052C197.762 373.029 191.032 386.339 179.02 383.477C176.916 382.157 174.593 379.652 174.808 376.992C176.423 375.182 180.942 375.79 183.867 374.331C186.432 373.051 187.819 371.799 190.006 370.052Z" fill="#F9F9F6"/>
<path d="M81.8457 251.493C86.3427 251.157 88.1657 251.219 92.5947 251.737C92.5147 254.734 92.5287 257.614 91.6177 260.457C88.1237 260.662 84.2347 260.55 80.7047 260.522C80.6737 257.624 80.1747 253.538 81.8457 251.493Z" fill="#F9F9F6"/>
<path d="M82.2089 0.189274C84.6359 0.103274 87.7799 -0.43171 89.6429 0.79929C90.7329 2.26429 90.4419 3.76829 90.4319 5.68329C87.9439 5.58229 84.6119 6.04027 82.9139 4.87427C81.9059 3.40727 82.1819 2.03627 82.2089 0.189274Z" fill="#F9F9F6"/>
<path d="M81.711 344.727C84.563 344.655 88.175 344.198 90.648 345.174C91.575 346.594 91.285 346.144 91.186 348.2C88.27 348.34 84.861 348.846 82.346 347.599C81.24 345.942 81.501 346.852 81.711 344.727Z" fill="#F9F9F6"/>
<path d="M96.9097 116.946C99.6747 116.64 101.745 116.183 103.973 117.674C101.397 118.44 98.8257 119.056 96.9097 116.946Z" fill="#F9F9F6"/>
</svg>
