<svg width="302" height="146" viewBox="0 0 302 146" fill="none" xmlns="http://www.w3.org/2000/svg">
<path d="M57.269 9.31336C61 8.73536 72.599 7.35637 73.226 12.0604C69.778 15.7634 69.856 14.4924 68.994 20.0544C67.557 29.3434 69.299 31.2304 78.206 31.1884C79.385 26.1144 79.693 20.4384 79.858 15.2384C78.012 13.7494 76.607 13.2724 76.998 10.8594C80.257 8.09235 102.957 12.3874 103.93 14.5174C105.808 18.6284 103.586 28.7294 108.088 33.9804C111.51 35.3594 113.143 32.0364 114.854 29.4624C115.406 32.3684 116.784 34.8884 116.884 37.6014C115.603 38.5934 115.468 38.6344 114.429 39.9554C112.86 50.5704 110.703 69.3534 114.926 79.1684C118.208 81.6454 123.457 84.7044 127.637 84.1594C135.397 83.1454 134.311 76.3023 142.365 75.7553C142.388 79.5393 142.145 83.3744 141.952 87.1584C136.068 90.4434 137.297 96.3634 137.421 102.274L142.106 107.858C129.476 100.883 122.744 97.7214 109.017 93.5454C93.6 89.4794 86.03 88.2664 70.114 86.4634L70.397 80.6473C75.857 74.5163 75.139 69.5514 75.431 61.5814C72.318 61.0644 68.33 60.8334 65.121 60.5644C64.438 65.8284 64.04 70.4974 63.642 75.7704L67.426 79.1874L67.233 86.1684C42.96 85.0674 31.683 86.1394 8.08405 92.5774L9.13702 78.2893C8.28202 77.3183 6.98902 76.1043 6.04102 75.1643C7.64702 59.5153 11.211 45.0494 12.81 30.5064C10.994 29.1204 10.274 28.5774 8.71304 26.9474C8.93304 16.4094 47.793 10.2474 57.269 9.31336Z" fill="#F9F9F6"/>
<path d="M233.861 13.3444C251.671 13.2394 274.376 16.1724 290.52 24.1894C292.172 25.0094 293.257 26.1844 293.71 28.0044C292.865 29.9084 292.621 29.5974 290.604 31.0164C289.855 38.2304 289.005 42.7204 294.208 48.4654C294.305 53.8774 295.232 70.4913 294.641 76.6823C294.637 76.7203 291.175 78.7014 290.936 79.3384C289.558 83.0134 290.767 91.0804 291.142 94.6494C292.767 95.2294 293.586 95.3514 294.739 96.6384L294.677 97.4484C293.393 97.4754 279.626 92.5054 276.65 91.7704C266.912 89.3974 256.934 88.1574 246.912 88.0754C243.794 88.0234 230.13 88.2574 228.49 87.0814C226.558 83.5224 228.78 82.4924 231.484 80.2784C231.623 76.5564 231.943 68.8034 230.212 65.8144C211.66 57.0324 225.46 85.3734 224.669 87.8344C221.609 88.8824 213.194 89.9634 209.431 90.6404C196.321 92.9354 188.297 95.6434 176.386 101.078C176.083 93.1614 175.104 86.1394 175.243 78.0724C177.614 80.8254 180.747 84.6034 185.154 82.8734C193.305 79.6744 193.942 68.7354 193.372 60.9214C192.869 54.0234 195.3 39.7764 187.302 36.1854C180.951 33.8384 178.205 40.8614 176.457 45.4894C176.157 42.0994 175.849 39.7154 175.259 36.3644C173.033 34.7194 172.025 34.6474 172.471 31.8874C177.344 25.4194 218.395 11.1323 223.905 14.7333C222.457 25.0933 219.023 24.6474 221.081 38.1194C222.497 38.1164 223.913 38.0904 225.328 38.0424C233.819 37.7134 231.351 28.0934 230.957 22.0544C228.566 19.7664 225.047 17.6283 227.735 14.2123C229.691 13.1213 231.554 13.3714 233.861 13.3444Z" fill="#F9F9F6"/>
<path d="M53.7546 100.825C64.1476 100.392 74.5566 101.036 84.8176 102.747C97.8296 104.887 131.28 113.796 138.394 123.752C138.322 124.909 137.964 125.347 137.124 126.204C125.021 138.547 104.117 138.173 88.2316 138.407C62.4286 137.892 18.3916 134.934 1.76562 113.278C12.7116 103.238 39.0296 101.698 53.7546 100.825Z" fill="#F9F9F6"/>
<path d="M231.033 103.311C241.898 101.819 282.821 104.973 289.629 111.229C303.826 124.273 244.18 133.058 237.697 133.687C220.604 136.202 195.069 132.386 179.384 125.358C176.486 124.06 174.032 119.869 176.849 117.649C189.6 107.602 215.318 104.604 231.033 103.311Z" fill="#F9F9F6"/>
<path d="M0 117.398C2.849 118.622 8.71899 123.786 11.835 125.857C17.904 129.889 23.712 131.71 30.784 133.742C59.236 141.915 92.31 144.369 121.331 138.135C124.946 137.358 128.542 135.923 131.776 134.21C134.329 132.859 138.332 128.742 140.778 128.257L141.294 128.784L141.11 130.48C126.729 146.31 94.459 145.852 74.247 144.797C54.304 143.756 8.841 136.729 0 117.398Z" fill="#F9F9F6"/>
<path d="M56.6061 0.315327C59.3861 -0.0186733 72.095 -0.407655 73.899 1.00335C75.739 5.67435 73.1631 6.34734 69.2861 6.19634C53.1451 5.56734 37.3761 8.36733 22.1931 13.8453C18.9851 14.9493 10.8831 19.5743 8.81507 19.1953C3.29707 7.43233 49.0341 0.999327 56.6061 0.315327Z" fill="#F9F9F6"/>
<path d="M228.423 6.36733C247.333 4.81633 270.183 8.07935 287.368 15.9693C290.576 17.4413 296.93 20.2613 296.769 24.1443L296.041 24.4193C280.754 14.6743 262.827 12.2113 244.989 10.8323C239.857 10.4363 233.48 10.9973 228.402 9.83934C227.029 9.52634 227.187 9.26034 226.623 8.16634C227.266 6.70234 226.797 7.37333 228.423 6.36733Z" fill="#F9F9F6"/>
<path d="M49.8699 93.8604C53.7219 93.6304 63.8759 92.6194 66.2279 96.0414L65.8969 96.9304C63.1439 98.8154 53.1919 97.9584 49.3599 98.0774C36.4249 98.4804 23.7819 100.513 11.4459 104.311C6.85489 106.056 4.69389 107.381 0.660889 110.023L0.317871 109.562C4.74887 96.4654 38.1499 94.3704 49.8699 93.8604Z" fill="#F9F9F6"/>
<path d="M69.388 94.4734C90.501 95.2914 121.524 102.607 138.493 115.945C140.69 117.672 141.262 118.781 141.423 121.38C120.887 106.804 96.852 99.8523 71.645 98.4893C70.347 98.4193 69.791 97.8064 69.064 96.9264L69.388 94.4734Z" fill="#F9F9F6"/>
<path d="M294.476 118.511C294.935 118.604 294.627 118.506 295.259 119.085C293.734 124.45 275.822 131.841 270.68 133.268C242.881 140.986 203.864 142.518 177.975 128.898L176.652 127.611L176.992 127.352C210.864 143.053 263.495 139.837 294.476 118.511Z" fill="#F9F9F6"/>
<path d="M149.921 67.1374C154.342 66.9584 158.351 66.9603 162.77 66.9973C162.932 72.5723 162.933 77.5774 162.294 83.1204C158.163 83.1444 153.955 83.0774 149.816 83.0554C149.389 77.6094 148.866 72.5234 149.921 67.1374Z" fill="#F9F9F6"/>
<path d="M229.093 96.8133C245.148 95.9343 262.899 97.3543 278.403 101.357C282.717 102.471 293.249 105.99 296.131 109.419L295.66 110.334C277.599 102.365 262.335 100.169 242.587 100.159C239.283 100.158 230.775 100.827 228.567 99.2483C228.377 97.6513 228.302 98.4523 229.093 96.8133Z" fill="#F9F9F6"/>
<path d="M220.587 7.29235C221.818 7.13535 221.751 7.07833 222.887 7.53933C224.033 9.14233 223.957 8.36733 223.74 9.87233C221.719 11.6733 203.906 14.1243 198.324 16.0783C188.428 19.5413 184.387 21.0003 174.98 25.9553C173.848 26.5433 174.068 26.4124 172.801 26.7284L172.417 26.1093C175.115 16.6733 210.79 8.52435 220.587 7.29235Z" fill="#F9F9F6"/>
<path d="M142.554 30.9893C145.585 34.8663 141.303 36.7253 140.497 40.3023C139.111 46.4513 141.908 51.9984 141.892 58.3904L134.258 58.7173C134.03 51.2543 134.43 46.1293 131.225 39.3893C136.379 33.3223 137.933 39.0533 142.554 30.9893Z" fill="#F9F9F6"/>
<path d="M228.612 91.2643C241.95 90.3163 289.264 91.6723 294.544 104.295C275.938 96.1083 258.764 93.5473 238.612 93.6883C235.665 93.7083 232.397 94.2694 229.584 93.5994C228.372 92.5074 228.799 93.2003 228.612 91.2643Z" fill="#F9F9F6"/>
<path d="M222.785 97.3023L223.97 97.4304C224.894 99.0014 224.808 98.2273 224.603 99.7573C223.179 100.814 201.193 104.319 196.172 105.741C188.931 107.714 182.005 110.698 175.598 114.606L174.771 115.076L174.518 114.447C179.534 105.021 212.015 98.5523 222.785 97.3023Z" fill="#F9F9F6"/>
<path d="M220.688 91.8064C222.605 91.5454 222.507 91.5203 224.35 92.0703L224.676 92.7473C222.32 95.2083 214.985 95.2273 211.373 95.9553C206.526 96.9313 202.015 97.8923 197.237 99.3113C190.27 101.307 183.558 104.105 177.237 107.651C176.565 108.064 175.427 108.585 174.686 108.956L174.375 108.393C178.154 98.9434 210.465 92.9984 220.688 91.8064Z" fill="#F9F9F6"/>
<path d="M134.769 61.7864C138.039 61.5164 142.907 60.6924 145.771 61.7964C148.083 64.1514 147.253 70.3484 145.693 72.0554C138.413 72.1324 131.251 74.7664 133.253 64.3064C133.615 62.4124 133.186 63.0094 134.769 61.7864Z" fill="#F9F9F6"/>
<path d="M69.4009 89.8023C82.7639 87.5833 136.173 101.86 141.973 114.238C139.983 113.609 130.879 107.478 127.708 105.914C115.042 99.6674 103.074 96.2884 89.3279 93.5144C83.9199 92.4224 72.3119 92.7373 69.4009 89.8023Z" fill="#F9F9F6"/>
<path d="M46.252 88.8254C52.394 88.3944 61.536 88.5524 67.424 89.9004C48.946 92.7184 38.74 89.5174 17.533 95.2784C12.349 96.7424 6.69903 98.9033 1.58203 100.731C13.94 91.2893 31.15 89.6244 46.252 88.8254Z" fill="#F9F9F6"/>
<path d="M182.502 39.2744C191.319 37.4914 190.54 48.7554 190.052 54.9054C189.114 66.7514 194.36 75.6843 181.648 80.4833C180.827 79.6513 180.88 79.6874 180.397 78.6144C182.678 77.8474 184.313 77.3963 185.687 75.3293C186.412 74.2323 186.891 72.9924 187.093 71.6934C187.846 66.8324 187.209 48.5594 186.223 43.1744C185.983 41.8634 183.98 41.0574 182.718 40.3214L182.502 39.2744Z" fill="#F9F9F6"/>
<path d="M165.792 62.0144C169.535 61.9424 173.44 62.0664 177.198 62.1334C177.341 65.9024 177.264 69.0614 177.135 72.8394C173.128 73.0954 170.381 73.0114 166.344 72.8424C165.95 69.3874 165.908 65.5244 165.792 62.0144Z" fill="#F9F9F6"/>
<path d="M119.311 39.8434L120.224 40.2203C121.205 42.5453 116.796 65.8283 118.031 70.8383C119.864 78.2673 123.231 75.9093 127.943 79.3543L128.062 80.2463C119.495 80.3283 115.187 78.2963 115.704 68.6873C116.053 62.2053 115.49 44.3574 119.311 39.8434Z" fill="#F9F9F6"/>
<path d="M181.91 43.8744C182.879 44.6054 183.485 44.7374 183.645 45.9434C184.497 52.3594 185.185 70.0034 182.53 75.0844C182.242 75.0224 181.531 74.6563 181.228 74.5143C180.498 72.5853 179.988 68.4343 180.172 66.4103C180.654 61.1353 178.604 47.7514 181.91 43.8744Z" fill="#F9F9F6"/>
<path d="M77.3129 0.602356C78.8739 0.715356 80.4329 0.847366 81.9909 1.00037C84.9049 1.31237 97.7429 6.94437 99.4939 9.15536C96.9529 9.07536 79.6379 6.68136 77.6499 6.01236C76.9799 4.45536 77.2489 2.37236 77.3129 0.602356Z" fill="#F9F9F6"/>
<path d="M123.461 43.9403L124.048 44.5244C125.28 48.8764 124.609 70.1673 123.137 74.2723C119.433 70.3023 122.335 49.9303 123.461 43.9403Z" fill="#F9F9F6"/>
<path d="M4.74402 30.8513C12.223 31.6813 9.12503 38.4083 7.75403 43.5263C1.09803 45.4273 4.13702 34.0003 4.74402 30.8513Z" fill="#F9F9F6"/>
<path d="M294.219 80.2484C300.968 81.4484 299.589 86.8973 297.898 91.8023C297.554 91.9433 296.234 92.0174 295.796 92.0594C292.117 90.3834 293.223 83.4584 294.219 80.2484Z" fill="#F9F9F6"/>
<path d="M294.512 31.8083C295.684 31.9723 295.807 32.0664 296.919 32.5154C299.49 35.5624 299.19 41.6073 297.136 44.7693C291.747 43.3913 292.381 35.4163 294.512 31.8083Z" fill="#F9F9F6"/>
<path d="M126.093 40.2354C132.792 42.2404 131.108 53.5273 130.602 58.9973L129.004 58.6504C126.527 56.3414 128.39 49.0214 127.695 45.4874C127.272 43.3384 126.846 42.2524 126.093 40.2354Z" fill="#F9F9F6"/>
<path d="M67.7179 63.8444C74.6469 64.3304 72.4789 69.9053 71.2459 75.0923C69.4349 75.1333 69.4249 75.2444 67.8009 74.2974C65.8689 71.5154 67.1689 67.3694 67.7179 63.8444Z" fill="#F9F9F6"/>
<path d="M144.5 37.8484C144.941 37.8844 145.382 37.9204 145.822 37.9554C150.084 38.6354 148.384 46.3714 147.267 49.2094C140.84 48.9864 142.52 41.7224 144.5 37.8484Z" fill="#F9F9F6"/>
<path d="M224.604 23.7593C225.26 23.7873 226.294 23.8043 226.867 24.0663C229.756 25.3883 228.5 33.1543 227.513 35.2073L225.038 34.6284C222.439 32.4024 222.398 26.2503 224.604 23.7593Z" fill="#F9F9F6"/>
<path d="M72.7226 15.8794C74.4426 16.1114 74.3316 16.0814 75.8336 16.9554C77.7076 19.8104 76.3296 24.4163 75.7566 27.9233C69.8736 28.3343 72.2436 19.6374 72.7226 15.8794Z" fill="#F9F9F6"/>
<path d="M224.389 67.9803C224.761 68.0203 225.132 68.0594 225.503 68.0984C230.078 68.2664 228.883 75.9073 228.328 79.0783C222.398 78.1473 222.864 72.6473 224.389 67.9803Z" fill="#F9F9F6"/>
<path d="M140.683 91.3744C147.432 91.3984 146.15 95.8624 144.5 100.81L142.537 101.151C138.841 99.8624 140.347 94.6214 140.683 91.3744Z" fill="#F9F9F6"/>
<path d="M2.41596 78.3694C7.28496 80.2464 6.87099 85.9743 4.50599 89.6303C-0.721014 86.8123 -0.24704 82.9834 2.41596 78.3694Z" fill="#F9F9F6"/>
<path d="M168.742 36.7343C174.703 38.1043 173.137 44.1214 171.874 48.4084C167.669 48.6314 168.409 39.2903 168.742 36.7343Z" fill="#F9F9F6"/>
<path d="M127.451 61.2993L129.495 62.2823C132.895 67.2623 125.808 71.7244 131.338 76.0334C130.228 76.6624 130.834 76.4853 129.418 76.2603C126.07 72.1293 126.948 66.3203 127.451 61.2993Z" fill="#F9F9F6"/>
<path d="M171.061 90.6944C174.787 92.2594 173.467 99.1414 172.153 102.084C168.594 98.6764 168.654 94.8024 171.061 90.6944Z" fill="#F9F9F6"/>
<path d="M150.052 61.2044C153.152 61.1464 159.71 60.5704 161.924 62.3744L161.752 63.7304C158.579 63.9364 153.104 64.7274 150.455 63.0544L150.052 61.2044Z" fill="#F9F9F6"/>
<path d="M176.583 49.5554C177.537 51.0974 177.188 55.8253 176.806 57.7213C176.516 59.1583 176.332 58.8784 175.032 59.6284C172.36 56.4274 173.812 52.2194 176.583 49.5554Z" fill="#F9F9F6"/>
<path d="M297.899 50.5294C299.968 52.5634 301.375 55.8103 301.145 58.7343C295.758 59.2673 297.441 54.4194 297.899 50.5294Z" fill="#F9F9F6"/>
<path d="M145.453 76.4243C147.316 77.9593 147.03 85.8173 147.101 88.3773L145.827 87.8734C144.013 85.5734 145.158 79.4193 145.453 76.4243Z" fill="#F9F9F6"/>
<path d="M151.396 86.3093C153.763 85.9833 159.332 85.3503 161.22 86.6313L161.202 87.7963C158.112 88.0243 153.2 89.0343 151.396 86.3093Z" fill="#F9F9F6"/>
</svg>

