<svg width="1024" height="1024" viewBox="0 0 1024 1024" fill="none" xmlns="http://www.w3.org/2000/svg">
<g clip-path="url(#clip0_85_493)">
<path d="M0 0H1024V1024H0V0Z" fill="#F9F9F6"/>
<path d="M338.458 135.416C339.324 135.434 341.111 135.519 341.768 135.945C346.881 139.263 350.559 154.327 353.205 160.47C352.73 155.247 352.274 150.069 352.044 144.889C351.619 135.317 359.011 132.52 361.899 142.303C365.391 154.128 366.025 166.331 370.013 178.169C372.508 174.031 375.511 168.719 380.206 166.895C383.622 165.569 387.88 165.878 389.286 169.817C389.294 174.004 383.963 177.752 382.532 181.357C377.533 193.952 380.197 197.324 371.51 208.841C372.868 215.536 374.253 223.203 376.158 229.669L376.399 229.789C389.773 236.339 395.807 271.243 399.467 285.347C410.659 292.526 433.207 301.792 446.278 303.633C460.17 305.59 473.894 305.188 487.452 311.045C492.278 313.129 496.433 313.255 501.44 312.122L501.614 295.451C497.978 290.102 496.356 287.115 493.831 281.166C481.43 279.759 475.756 263.422 484.745 256.711C480.233 231.041 479.618 210.683 507.341 199.65C511.996 186.331 519.703 196.994 521.081 197.107C544.762 199.056 553.042 204.536 558.423 228.03C561.636 229.861 572.741 236.345 567.991 242.207C566.566 243.967 562.198 243.238 560.098 242.842C559.972 243.987 558.768 253.284 558.936 253.38C568.521 258.899 565.319 274.615 554.011 278.07C551.845 286.97 550.274 289.658 545.191 297.457C545.208 303.169 545.279 308.353 545.565 314.063C563.979 320.032 596.072 327.994 606.764 345.194C613.179 355.513 618.992 371.768 623.435 383.24L636.418 416.738C647.356 409.872 653.044 407.282 665.864 406.566C669.549 403.87 671.9 401.7 674.784 398.237C675.057 393.503 675.111 388.518 676.521 383.957C678.479 377.626 682.829 373.01 686.033 367.362C687.478 364.813 688.451 362.006 689.419 359.25C690.233 356.932 691.608 355.84 693.009 353.908C694.295 352.136 678.625 284.061 677.196 276.522C675.533 267.746 674.678 258.796 673.24 249.973C668.044 244.786 669.759 236.692 677.139 238.475C680.944 239.394 680.484 250.931 681.355 254.738L705.192 360.006C710.142 359.707 716.404 359.869 715.778 366.12C715.341 370.489 717.959 373.011 719.819 376.485C719.555 381.655 719.903 382.686 721.446 387.647C721.797 388.814 720.912 392.315 721.135 393.226C723.194 401.651 722.361 406.263 713.19 409.89C713.543 413.77 714.829 418.034 712.78 421.625C710.809 425.082 705.641 420.166 703.683 418.853C696.327 419.76 690.712 427.264 685.901 432.645C685.638 434.239 685.228 435.754 684.962 437.275C683.583 445.164 671.142 460.636 664.869 464.309C663.684 464.128 663.615 464.107 662.427 464.201C661.069 467.044 662.277 488.222 662.401 492.344C666.933 495.154 666.737 498.499 666.091 503.354C665.974 504.232 664.96 510.297 664.983 510.341C668.514 517.249 667.891 515.258 664.986 521.646L665.42 522.648C669.415 525.118 686.974 526.327 694.044 528.306L694.738 528.504C696.058 535.974 701.679 538.614 696.268 544.535L696.435 552.419C714.148 563.772 719.382 578.175 724.126 597.813C726.737 608.621 729.541 619.698 732.284 630.487L756.032 722.061C763.337 711.445 774.037 697.91 779.46 686.797C780.651 686.378 781.036 686.338 782.042 685.603C782.803 674.955 782.211 656.156 782.198 644.966L782.256 567.156L776.558 566.645C776.737 561.02 776.606 554.703 776.598 549.027L782.087 548.584C782.222 526.843 782.216 505.101 782.067 483.359C776.667 480.589 772.23 476.03 767.738 471.919C759.322 471.278 691.826 471.586 694.413 461.212C701.819 453.658 750.325 450.346 762.129 449.243C769.519 448.552 773.289 445.28 780.023 442.526C779.984 439.822 779.436 436.557 780.576 434.447C782.02 433.118 783.431 433.249 785.447 433.037L785.465 385.84C785.482 380.155 785.444 373.736 785.563 367.994C785.587 366.807 786.525 366.239 787.32 365.7L788.097 366.178C790.251 372.942 788.844 422.722 788.835 433.045C790.763 433.123 792.676 433.296 794.599 433.451L794.847 442.686C798.539 444.02 805.842 448.17 809.144 448.637C819.962 450.166 873.127 451.837 878.587 460.115C878.576 461.258 878.635 461.494 877.79 462.362C870.676 469.658 818.643 471.131 807.588 471.56C802.944 475.522 798.41 480.246 793.387 483.656L793.388 548.655C799.443 550.934 801.185 550.619 807.767 550.729C807.954 553.117 807.902 556.155 807.928 558.597L797.908 559.039C797.916 562.331 798.389 564.237 796.222 566.665C794.895 567.113 794.979 567.015 793.795 567.705C792.926 576.012 793.447 597.995 793.431 607.382L793.301 685.74C799.232 689.139 795.292 689.426 797.728 692.485C805.077 701.714 812.44 710.911 819.718 720.199C841.059 747.123 862.243 774.171 883.267 801.343C884.507 801.441 885.741 801.602 886.965 801.825C893.807 803.141 899.19 809.745 897.488 816.81C895.262 826.054 879.399 829.811 874.605 820.639C872.227 816.09 873.553 810.699 874.929 806.065C869.184 798.06 861.462 788.777 855.306 780.87C849.267 773.113 841.301 762.563 834.82 755.386C823.634 761.912 806.608 774.617 795.759 782.266C795.944 784.347 795.905 787.155 795.939 789.298C791.906 790.201 783.072 791.693 780.287 788.226C778.722 786.278 779.352 783.112 779.525 780.782C771.363 771.217 758.286 758.338 749.408 749.027C744.246 756.006 738.714 764.316 733.866 771.624C732.832 773.182 733.017 773.302 733.407 774.631L734.192 775.183C734.838 775.649 736.747 776.756 736.953 777.275C742.046 790.106 750.88 797.957 763.122 804.4C773.658 809.944 789.931 816.424 792.066 830.387C793.628 840.596 792.676 846.035 781.148 847.075C765.072 849.099 749.419 847.69 734.313 841.804C728.38 839.493 723.046 836.051 716.754 834.779C709.58 833.306 691.149 834.305 685.748 830.084C680.313 825.838 686.959 795.601 688.113 788.785C688.232 788.082 690.864 784.91 691.304 784.367C691.494 777.478 687.653 758.893 686.249 751.75C678.144 753.194 671.125 754.636 662.853 754.766C658.91 742.722 645.333 671.612 641.994 668.444C640.765 671.129 642.648 676.195 643.478 678.985C648.87 695.314 648.826 721.522 643.843 737.775C639.564 751.729 644.439 745.861 644.2 755.457C645.337 756.02 646.47 756.59 647.599 757.167C650.063 758.402 650.983 759.074 651.988 761.718C651.197 764.96 649.147 764.212 646.275 766.422C647.633 772.129 660.666 795.718 663.784 802.624C666.748 809.186 672.569 819.801 675.976 826.554C679.142 830.849 683.113 834.436 685.694 839.168C686.758 841.121 690.763 848.546 686.786 849.599C667.795 854.628 668.462 846.746 670.681 831.866L649.125 789.03C645.632 782.196 642.016 774.673 638.112 768.163C636.235 768.486 634.289 768.374 632.375 768.346C621.152 786.114 618.092 789.569 603.03 804.167C604.022 806.982 605.36 809.609 606.644 812.306C606.985 812.509 607.327 812.712 607.668 812.916L608.146 813.221C611.229 815.167 614.751 819.353 616.54 822.833C622.957 835.313 600.147 839.921 600.932 824.518C601.141 820.426 599.743 812.222 598.082 808.103C591.916 812.53 586.57 816.203 580.172 820.379L581.658 828.129C577.183 830.936 572.133 832.655 567.194 834.488C565.827 832.818 564.423 830.892 563.101 829.161C529.235 840.416 507.687 839.402 474.47 828.455C473.453 830.205 472.331 831.726 471.164 833.374C464.853 831.253 461.739 830.02 456.01 826.558C456.54 824.747 457.355 822.607 457.987 820.794C453.289 817.786 448.75 814.872 443.934 812.046L442.962 812.475C438.094 817.832 444.449 835.098 430.277 834.22C427.21 834.03 424.908 834.514 422.867 831.784C421.482 825.085 433.875 812.856 437.42 806.572C429.059 799.012 421.446 791.93 414.639 782.737C412.571 779.945 408.214 772.225 405.744 770.108C404.969 769.443 402.475 770.57 398.623 766.986L398.158 766.546C390.621 778.629 383.726 794.522 376.684 807.288C373.214 813.579 368.782 822.433 365.772 828.995C364.498 835.094 366.681 840.495 365.6 846.767C364.518 853.05 347.136 852.564 346.136 848.433C344.32 840.931 356.348 832.357 358.951 826.068C351.959 826.312 339.918 826.602 333.846 830.173C327.474 833.92 324.84 836.671 317.112 838.622C301.349 842.602 283.028 842.516 268.67 834.25C268.538 832.168 268.46 830.082 268.435 827.996C268.07 801.975 297.075 799.898 312.396 783.551C305.433 772.344 294.722 757.765 286.841 746.879C277.373 755.775 265.818 768.306 256.365 777.787C256.9 781.874 257.052 783.839 257.045 787.953C251.743 788.634 244.55 788.274 239.121 788.012C238.765 785.545 238.705 783.004 238.583 780.508C226.985 772.84 213.077 761.277 201.726 752.657L177.008 784.17C172.742 789.645 165.954 797.881 162.526 803.654C162.608 803.958 162.685 804.263 162.759 804.569C164.841 813.058 164.874 822.254 154.048 824.004C150.519 824.572 146.909 823.712 144.014 821.615C141.527 819.821 139.878 817.092 139.445 814.056C138.216 804.907 145.205 800.387 153.306 799.361C158.162 794.118 164.719 784.911 169.082 779.093L195.252 744.345C203.892 733.086 212.59 721.871 221.346 710.702C228.415 701.661 233.575 695.817 239.547 685.935C241.295 685.396 240.844 685.79 242.051 684.67C242.946 663.117 242.096 635.397 242.033 613.541L241.929 583.587C241.905 578.37 241.883 572.995 241.668 567.769C241.587 565.819 241.047 565.946 239.344 564.672C238.234 562.43 238.172 560.065 237.876 557.541L230.071 557.506L230.045 549.117L237.443 548.6C239.219 547.396 240.118 546.77 241.719 545.365C242.898 541.206 242.511 519.409 242.51 513.673L242.341 445.963C225.905 443.443 163.197 432.763 152.668 421.416C151.643 420.312 150.722 418.736 150.96 417.17C151.129 416.052 151.871 415.12 152.75 414.457C162.31 407.247 211.604 410.56 224.312 412.438C233.201 408.593 236.876 407.356 246.432 405.89C246.437 403.237 246.063 399.754 247.786 397.865L250.512 397.903C252.642 396.704 252.231 396.74 252.886 394.199C254.262 393.569 253.535 393.697 255.156 394.154C255.333 394.552 255.515 394.949 255.702 395.343C257.089 398.209 257.219 398.106 260.337 399.198L261.032 399.433C261.025 402.92 260.948 404.305 260.426 407.767C269.849 412.141 272.14 413.44 279.648 420.525C293.501 423.264 341.329 433.374 350.042 443.273C350.742 444.069 351.348 445.188 351.245 446.263C351.084 447.943 350.149 449.247 348.785 450.181C336.206 458.801 268.114 449.717 252.299 447.319C251.72 458.499 252.225 473.535 252.262 485.068L252.061 546.418L258.011 546.501C258.061 552.177 258.186 559.292 257.63 564.824L252.37 565.662C252.433 580.168 251.915 682.698 253.024 685.118C253.605 685.234 256.131 685.742 256.387 686.278C258.622 690.735 261.308 694.906 264.412 698.812C284.275 723.806 300.628 750.894 318.741 777.077C320.78 771.764 322.79 765.724 329.921 766.317C330.986 766.406 331.445 766.521 332.409 766.053C334.029 762.221 338.035 738.125 339.01 732.756C329.198 729.318 318.891 727.298 309.292 722.727C309.76 715.55 316.789 691.013 318.898 682.998C325.783 656.939 332.534 630.845 339.151 604.717C334.082 603.157 329.145 601.985 324.306 599.807C324.623 596.048 325.162 592.343 325.469 588.431C320.9 584.951 322.582 577.437 324.96 572.937C325.611 571.705 327.823 571.521 329.119 571.305C330.572 559.231 331.945 547.147 333.241 535.055C331.21 534.537 328.94 533.772 326.916 533.143C327.063 527.507 325.743 519.752 330.845 516.516C331.068 513.197 331.311 509.879 331.572 506.563C340.134 504.375 351.272 503.035 360.077 502.556C360.925 490.126 362.859 496.204 365.527 487.7C367.332 481.947 368.095 469.638 368.836 463.047C366.827 462.553 364.404 461.721 362.393 461.093C362.688 456.418 363.1 451.061 363.877 446.451C364.265 444.154 365.249 444.062 367.18 442.889C367.803 439.355 367.812 432.662 368.362 428.154C368.859 427.708 369.373 427.28 369.902 426.872C387.65 413.285 424.614 410.512 446.722 413.357C446.245 403.727 443.721 388.004 441.152 378.805C435.078 373.749 424.983 368.361 417.792 364.355C398.296 353.405 376.657 343.215 359.741 328.382C347.81 317.919 346.364 293.739 343.669 278.942C342.072 270.171 341.119 260.34 340.649 251.441C340.352 245.822 341.749 240.329 345.873 236.343C346.143 233.104 344.512 219.61 344.127 215.513C341.818 213.313 337.166 208.973 335.74 206.16C332.366 199.504 330.938 191.59 328.044 184.684C325.085 177.628 320.972 170.685 318.697 163.324C318.343 162.178 318.972 160.896 319.708 160.005C320.656 158.858 321.288 158.67 322.687 158.515C326.193 159.465 328.197 162.766 330.561 165.669C329.138 161.292 323.277 147.389 328.105 144.202C329.084 143.549 330.301 143.359 331.434 143.683C334.03 144.443 336.037 149.078 337.263 151.416C335.992 145.266 333.731 140.35 338.458 135.416Z" fill="black"/>
<path d="M516.419 593.5C580.969 592.039 634.486 643.176 635.96 707.726C637.434 772.277 586.308 825.804 521.758 827.291C457.19 828.779 403.644 777.635 402.169 713.066C400.694 648.497 451.85 594.961 516.419 593.5Z" fill="#F9F9F6"/>
<path d="M499.264 384.463C501.756 385.626 508.529 391.881 511.334 393.977C519.157 399.824 527.201 405.238 536.002 409.535C539.505 411.245 549.29 414.374 550.922 416.995L550.451 418.679C537.742 416.115 516.978 401.794 506.299 393.892C503.905 392.12 499.91 389.058 498.629 386.315C498.302 385.615 498.858 385.164 499.264 384.463Z" fill="black"/>
<path d="M500.236 400.213C503.261 400.982 519.711 417.242 524.698 420.28C527.966 422.27 534.941 426.597 538.184 429.107C538.678 429.489 538.23 430.372 538.014 431.325C528.79 429.345 506.848 409.844 499.922 402.338C499.393 401.764 499.986 400.905 500.236 400.213Z" fill="black"/>
<path d="M696.374 556.404C714.97 567.732 718.691 588.718 723.501 608.271C725.976 618.438 728.519 628.587 731.13 638.72C738.576 667.724 747.692 699.453 754.072 728.421C730.29 738.082 690.628 750.226 665.07 751.719L663.578 745.389L653.82 701.99C651.077 689.798 646.215 672.189 646.485 660.375C648.959 659.371 649.039 659.456 649.923 657.503C649.798 654.663 648.24 653.277 646.272 651.329C642.339 620.38 625.801 626.008 604.974 609.45C633.356 611.02 669.926 610.297 695.682 597.267L696.211 587.173C697.093 586.255 698.535 584.512 698.264 583.218C696.316 573.918 696.355 565.921 696.374 556.404Z" fill="#6CA6D6"/>
<path d="M342.51 605.321C372.273 610.546 408.949 614.704 439.131 611.979C430.425 618.853 422.639 626.817 415.963 635.676C413.316 639.151 407.886 649.016 405.373 650.444C400.267 650.064 400.153 651.263 397.535 655.131C395.154 654.394 393.04 653.995 390.611 653.493C389.695 655.521 388.962 657.978 388.252 660.114C398.232 664.463 389.182 664.34 397.189 671.112C392.211 688.862 389.808 700.508 391.328 719.377C392.23 728.552 393.586 734.794 395.79 743.578C370.734 738.071 336.119 730.002 312.461 720.769C313.563 715.411 315.11 709.556 316.59 704.275C325.763 671.54 333.298 637.999 342.51 605.321Z" fill="#6CA6D6"/>
<path d="M420.828 424.707C424.115 424.161 433.588 423.626 436.178 425.745C436.616 427.376 436.677 426.6 435.969 428.15L433.785 428.955C431.98 430.8 432.046 437.029 431.808 439.632C431.061 447.791 434.994 446.654 441.265 446.64C441.951 443.379 443.375 433.723 442.596 430.298C442.327 429.111 440.268 429.584 439.12 426.949L439.821 425.522C441.03 424.809 442.103 424.66 443.717 424.869C465.276 427.66 489.873 432.54 506.826 446.818C507.743 447.59 507.592 448.836 507.428 449.81C498.815 459.023 506.397 465.899 505.458 474.315C502.837 474.451 500.057 474.469 497.417 474.531C497.476 468.545 498.246 460.239 494.653 455.223C489.924 448.62 483.162 451.458 477.645 455.186C476.914 465.282 475.87 476.281 475.766 486.387C475.743 489.664 477.504 495.038 480.263 496.794C487.086 501.136 497.346 501.852 500.81 492.872C501.256 491.714 504.578 491.681 505.935 491.59C505.633 494.534 505.878 501.418 505.051 503.571C503.488 504.163 503.011 504.221 501.855 505.462C500.887 509.283 500.775 513.848 501.059 517.787C501.16 519.186 503.447 520.219 504.497 521.353L505.05 521.961C504.654 522.194 504.259 522.426 503.864 522.659C500.902 521.624 496.09 518.398 493.516 517.204C474.651 508.447 453.531 503.99 432.883 502.321C433.12 494.835 433.732 497.415 436.735 491.409C437.93 489.019 438.265 480.264 438.448 477.223C434.13 476.594 432.266 476.468 427.899 476.462L426.43 491.772C431.837 494.884 430.546 496.537 429.821 502.073C407.835 500.265 391.452 502.325 370.503 508.404C371.17 502.904 371.499 499.133 371.609 493.566L368.591 490.894C370.202 476.619 372.283 462.897 375.089 448.805C376.168 443.384 372.283 444.96 370.973 442.437C373.108 431.207 410.175 425.635 420.828 424.707Z" fill="#F9F9F6"/>
<path d="M591.36 429.017C605.165 428.404 618.992 429.488 632.533 432.246C639.02 433.634 655.636 437.818 659.272 443.471L659.052 444.185C657.378 444.788 657.012 444.828 655.642 446.039C653.504 450.236 654.234 460.564 658.419 463.658C658.961 473.315 659.308 482.982 659.46 492.653C658.591 492.871 656.829 493.279 656.254 493.856C653.575 496.548 655.326 506.872 655.611 510.573C657.605 510.899 657.972 510.946 659.82 511.688L660.138 512.519L659.515 513.307C657.979 513.617 652.999 511.397 651.32 510.71C637.376 505.008 622.535 504.025 607.667 503.655C604.998 503.589 594.537 503.847 592.934 503.028C590.936 499.811 593.578 498.013 596.007 496.111C596.043 493.055 596.632 484.098 595.051 481.467C594.172 480.006 587.213 479.985 585.229 482.074C584.369 488.158 584.669 492.505 587.965 497.873C589.903 501.027 589.382 499.925 589.48 503.856L577.883 505.478C562.879 508.244 554.284 510.5 540.549 517.095C540.375 511.078 538.638 499.502 539.181 494.454L539.626 494.375C542.035 497.53 541.792 497.903 545.577 499.413L546.267 499.681C546.849 499.521 547.426 499.342 547.997 499.145C562.404 494.086 556.076 477.506 557.237 466.084C558.895 449.767 544.57 444.308 540.485 461.844C540.445 457.063 540.269 455.995 539.019 451.556C537.806 450.524 536.42 449.563 535.124 448.617C545.824 437.659 573.054 431.044 588.204 429.282C588.322 431.149 588.408 431.998 588.212 433.837C583.131 441.202 584.668 444.985 585.237 453.542C587.523 453.562 592.667 453.885 594.313 452.884C596.142 449.439 595.658 442.625 595.301 438.708C595.065 436.125 593.715 436.222 591.891 434.696C590.969 433.925 591.325 430.371 591.36 429.017Z" fill="#F9F9F6"/>
<path d="M171.156 413.704C175.114 413.211 186.611 413.178 190.932 413.312C237.977 414.87 286.334 422.226 331.015 437.25C334.761 438.51 347.747 442.81 347.752 446.939C344.703 449.717 335.204 450.061 331.124 450.381C280.683 451.291 224.559 441.529 176.008 428.419C171.789 427.28 153.116 422.163 155.162 417.213C158.97 414.334 166.404 414.102 171.156 413.704Z" fill="#F9F9F6"/>
<path d="M408.009 517.209C436.612 514.079 480.025 521.819 502.769 539.75C492.778 552.216 475.47 553.738 460.625 554.477C433.466 555.153 381.574 552.044 364.225 529.195C374.49 520.339 394.834 518.195 408.009 517.209Z" fill="#F9F9F6"/>
<path d="M532.429 282.721C533.2 282.711 532.8 282.608 533.555 283.233C533.201 285.602 529.038 289.997 526.41 290.397C523.795 290.795 522.258 289.804 520.235 288.385C518.66 286.757 517.485 284.837 516.208 282.953C522.031 283.05 526.604 283.034 532.429 282.721Z" fill="#F9F9F6"/>
<path d="M593.873 519.206C605.602 518.136 652.583 519.736 656.994 530.132C657.586 541.216 612.245 549.008 602.177 549.634C585.91 551.675 556.748 548.95 542.551 540.885C540.643 539.801 539.808 538.814 539.26 536.769C540.665 525.458 583.432 520.169 593.873 519.206Z" fill="#F9F9F6"/>
<path d="M737.399 786.945C738.405 787.297 737.939 787.025 738.636 788.042C736.245 792.375 725.2 794.248 724.446 799.895C727.892 801.404 735.544 792.07 741.211 791.734C742.262 792.413 742.256 792.323 742.795 793.434C740.235 796.338 728.41 799.072 729.749 803.583C730.089 803.77 730.428 803.958 730.768 804.145C735.519 802.473 739.474 797.894 744.674 796.516C746.294 796.678 746.452 797.096 747.669 798.226C744.983 801.753 735.204 802.11 736.072 807.915L736.984 808.177C741.589 804.944 748.146 799.635 753.711 802.144C752.028 804.749 743.012 807.235 741.953 810.957L742.468 811.675C747.61 812.772 754.035 801.952 759.344 806.263C757.453 808.651 752.175 809.375 749.518 813.361L749.662 814.061C753.147 814.087 759.827 810.054 763.184 808.247L770.156 811.522C771.684 812.277 773.187 813.082 774.662 813.935C782.554 818.413 786.573 822.2 789.066 831.161C770.476 835.318 752.67 833.961 734.341 828.276C729.688 826.833 723.481 823.119 718.838 822.167C707.844 819.913 698.206 818.67 687.3 815.636C687.593 807.793 689.268 795.986 691.087 788.515C700.707 798.875 712.503 802.63 725.121 794.068C728.815 791.561 733.411 788.941 737.399 786.945Z" fill="#F9F9F6"/>
<path d="M320.282 779.042C325.398 778.407 335.415 785.777 339.644 788.697C350.858 796.441 358.845 788.587 365.372 779.393C367.411 785.41 369.083 799.244 368.112 805.889C367.967 806.875 367.262 808.365 366.138 808.718C360.057 811.543 346.815 811.404 341.274 813.863C316.978 824.644 299.217 830.601 271.887 821.673C274.764 812.059 286.176 802.888 295.487 800.187L296.628 800.815C299.978 802.22 309.668 807.316 311.845 806.746L312.278 805.539C310.773 802.309 302.724 801.213 299.412 798.516C299.682 796.779 299.26 797.395 300.5 796.468C305.048 796.16 312.182 801.267 316.054 803.812C317.625 803.91 316.974 804.145 318.109 803.204L318.165 801.938C315.78 798.278 309.422 796.958 305.674 793.687L305.689 793.078L306.864 792.364C312.495 792.14 321.548 800.804 324.421 799.078L324.344 797.977C321.884 794.363 315.556 792.28 311.468 789.583L311.512 788.921C316.575 785.494 326.093 796.511 331.166 795.245L331.688 794.322C330.19 790.279 317.829 788.136 316.822 784.452L317.761 783.262C320.974 783.024 330.775 790.545 335.224 792.074L336.197 791.216L336.128 790.302C333.019 785.792 320.933 782.579 320.282 779.042Z" fill="#F9F9F6"/>
<path d="M353.761 517.712L355.525 517.567C357.195 518.129 358.46 519.863 359.702 521.233C358.638 534.55 357.958 536.043 368.122 545.497C367.707 554.468 366.371 564.546 365.311 573.511L360.41 575.284C359.364 579.681 359.375 583.663 359.237 588.152C361.049 589.409 362.428 590.014 362.536 592.334C360.026 593.951 354.944 592.525 351.75 591.993C345.613 590.881 339.407 589.832 333.368 588.288C333.6 580.375 336.367 577.212 332.404 570.338C332.096 569.804 333.992 555.833 334.233 553.896L338.309 519.899C343.104 518.74 348.814 518.217 353.761 517.712Z" fill="#F9F9F6"/>
<path d="M371.163 547.566C390.194 556.678 396.994 557.167 416.516 561.619C416.556 564.448 417.014 573.595 415.945 575.495C414.624 575.682 414.377 575.736 413.11 576.149C411.448 578.434 411.955 587.05 411.965 590.255C413.078 591.128 413.495 591.483 414.482 592.49C415.163 594.211 414.761 595.047 414.346 596.868C403.58 597.008 378.529 596.098 367.204 593.755C365.289 593.359 369.494 588.856 369.723 587.573C370.277 584.458 370.809 578.757 370.286 575.671C370.008 575.378 369.481 574.839 369.254 574.531C367.651 572.357 370.72 551.622 371.163 547.566Z" fill="#F9F9F6"/>
<path d="M240.932 702.201C241.5 702.332 241.809 702.534 242.348 702.791C242.8 705.21 242.762 722.664 242.692 725.759C242.303 742.837 243.149 761.656 242.212 778.561C236.433 775.743 225.911 767.265 220.316 762.991C214.835 758.446 209.371 754.854 203.839 749.906C214.901 734.645 229.215 717.268 240.932 702.201Z" fill="#F9F9F6"/>
<path d="M793.296 702.655C796.61 705.256 806.772 718.993 809.925 723.09C817.607 732.879 825.226 742.717 832.782 752.603L816.943 763.609C809.202 769.089 801.484 774.664 793.478 779.746C793.064 755.443 792.862 726.828 793.296 702.655Z" fill="#F9F9F6"/>
<path d="M252.88 702.146C256.948 703.715 263.034 713.472 265.82 717.341C272.229 726.176 278.573 735.059 284.85 743.988C280.064 749.436 274.177 755.299 269.097 760.578C263.854 765.845 258.377 771.526 252.932 776.521L252.686 730.04C252.66 721.04 252.437 711.042 252.88 702.146Z" fill="#F9F9F6"/>
<path d="M342.063 733.409C351.066 735.846 360.2 738.128 369.133 740.772C366.094 753.437 364.331 769.064 360.166 781.131C359.745 782.35 357.465 784.356 356.447 785.264C353.051 787.689 348.485 789.738 344.294 788.067C337.501 785.358 346.763 777.978 343.725 772.646C341.595 768.907 339.303 768.642 335.539 767.306C337.82 756.039 339.69 744.72 342.063 733.409Z" fill="#F9F9F6"/>
<path d="M419.531 562.249C434.918 563.793 443.235 564.902 458.984 564.833C459.176 567.784 459.775 571.706 458.848 574.3C454.63 577.795 455.898 584.333 456.083 589.483C457.488 590.506 458.784 591.153 459.371 592.715C458.839 594.273 459.243 593.537 457.746 594.774C451.203 595.73 424.595 597.695 419.199 596.617L418.576 595.655C418.78 592.679 421.058 591.785 422.172 589.511C423.329 587.149 422.844 580.171 421.986 577.609C418.193 574.046 419.4 567.311 419.531 562.249Z" fill="#F9F9F6"/>
<path d="M781.333 702.891C782.861 705.236 781.992 769.404 781.929 778.699C777.186 773.491 772.086 768.268 767.211 763.154C762.118 757.786 756.208 751.814 751.497 746.216C759.641 733.136 772.222 715.657 781.333 702.891Z" fill="#F9F9F6"/>
<path d="M713.408 745.613C714.382 745.378 714.179 745.446 715.207 745.474C716.819 749.105 719.178 770.679 720.227 776.473C712.806 781.191 716.388 787.859 719.59 794.208C712.956 796.173 708.882 796.112 702.559 793.792C698.95 791.953 697.393 790.865 694.93 787.663C693.691 774.991 691.528 763.757 689.203 751.251L713.408 745.613Z" fill="#F9F9F6"/>
<path d="M535.423 493.023L535.617 502.934C533.212 503.666 531.582 504.801 530.589 506.236C529.547 507.744 529.252 509.519 529.422 511.354C529.755 514.947 531.878 518.91 533.947 522.013C533.96 528.522 534.027 535.032 534.148 541.542L534.151 541.706L534.25 541.837C538.403 547.268 541.703 548.9 547.458 551.882C547.884 560.314 548.011 568.759 547.84 577.2C547.719 577.16 547.575 577.107 547.408 577.033C546.954 576.833 546.398 576.531 545.766 576.149C544.504 575.388 542.981 574.334 541.447 573.212C538.492 571.051 535.532 568.662 534.378 567.685L533.149 562.204L533.06 561.81L532.655 561.814L525.395 561.903C525.357 558.033 525.166 545.397 525.102 533.179C525.069 526.775 525.071 520.496 525.151 515.673C525.191 513.261 525.251 511.217 525.334 509.706C525.376 508.95 525.424 508.332 525.477 507.872C525.504 507.642 525.531 507.457 525.558 507.316C525.563 507.291 525.569 507.268 525.574 507.246C527.521 506.475 528.642 505.893 529.222 504.863C529.522 504.332 529.657 503.719 529.738 502.993C529.818 502.272 529.852 501.375 529.913 500.27C530.047 497.84 530.05 495.346 530.086 492.924L535.423 493.023Z" fill="#6CA6D6" stroke="black"/>
<path d="M784.252 445.081C797.17 444.151 799.716 450.883 809.002 451.92C828.287 454.074 846.864 453.753 866.049 458.375C857.961 458.889 847.029 458.565 838.764 458.567L790.064 458.638C764.376 458.949 733.114 460.383 708.019 459.299C726.952 455.184 745.996 453.688 765.221 452.236C769.115 451.941 777.873 446.471 784.252 445.081Z" fill="#F9F9F6"/>
<path d="M372.23 741.412C376.265 742.383 394.12 746.371 396.786 747.419C395.253 751.564 394.594 750.167 394.122 755.333L394.057 756.107C390.885 759.25 387.8 756.783 385.157 758.253C383.953 762.334 385.428 764.251 388.331 767.132C388.269 770.177 381.369 782.594 379.489 786.211L371.446 801.371C370.605 794.587 370.775 787.555 369.004 780.929C368.207 777.946 367.587 777.35 365.11 775.608C367.127 765.007 369.408 751.552 372.23 741.412Z" fill="#F9F9F6"/>
<path d="M790.541 461.743C815.509 461.394 846.491 460.861 871.066 462.277C839.582 468.091 811.858 468.458 779.891 468.665C756.872 468.725 722.026 468.324 699.962 463.27C711.41 462.259 725.72 462.553 737.354 462.454L790.541 461.743Z" fill="#FDFDFD"/>
<path d="M686.684 818.75C697.35 821.483 707.374 822.955 718.061 825.189C722.698 826.157 729.396 830.03 734.356 831.48C755.001 837.519 769.022 837.593 789.561 834.316C789.562 836.955 789.803 839.434 788.701 841.768C772.962 847.833 750.793 844.868 735.258 839.048C730.356 837.211 724.619 833.038 719.241 832.087C707.855 830.073 698.485 831.453 687.089 827.951C686.647 824.277 686.624 822.471 686.684 818.75Z" fill="#F9F9F6"/>
<path d="M363.485 812.645L364.797 812.597L365.01 813.189C364.051 816.264 362.012 819.645 360.427 822.532C351.761 823.686 341.039 822.929 333.03 826.959C329.281 828.844 325.493 832.31 321.238 833.93C306.204 839.653 288.708 839.438 273.958 833.519C272.838 832.902 272.806 832.797 271.88 831.888C271.007 829.702 271.369 827.302 271.474 824.875C298.276 832.734 316.764 828.821 340.275 817.313C343.288 815.838 359.233 813.441 363.485 812.645Z" fill="#F9F9F6"/>
<path d="M507.788 570.695C538.791 569.865 532.563 572.079 557.828 589.057C545.342 586.324 537.689 584.924 524.864 584.136C506.653 583.882 494.803 586.141 477.528 591.135C482.531 586.714 502.084 571.253 507.788 570.695Z" fill="#F9F9F6"/>
<path d="M617.886 593.287C638.277 591.766 657.175 593.404 677.321 595.783C664.035 599.805 653.866 601.17 640.25 602.04C624.879 603.257 596.507 602.051 582.379 596.974C594.748 595.232 605.41 593.914 617.886 593.287Z" fill="#F9F9F6"/>
<path d="M490.705 559.552L491.754 559.564L492.252 560.106C491.414 561.094 490.57 562.076 489.718 563.051C489.199 566.974 489.803 573.119 490.417 577.093C486.199 580.799 480.876 584.983 475.938 587.668C474.459 588.472 473.268 587.847 471.97 587.12C470.767 586.446 468.102 587.928 466.811 588.449L466.639 588.402C465.845 587.455 465.671 579.434 465.443 577.115L462.199 574.807C461.981 571.619 461.982 567.874 461.908 564.634C472.392 563.845 480.658 562.241 490.705 559.552Z" fill="#F9F9F6"/>
<path d="M785.439 566.999C787.264 566.99 788.51 566.728 789.797 567.636C790.592 575.287 790.001 597.612 789.985 606.598L789.996 686.449C787.832 686.391 787.028 686.688 785.602 685.631C785.155 681.511 785.39 675.441 785.408 671.142L785.435 647.573L785.439 566.999Z" fill="#F9F9F6"/>
<path d="M361.991 532.725C363.395 533.335 365.858 535.588 367.305 536.709C371.546 539.994 376.944 543.989 382.117 545.917C413.418 557.582 455.232 561.873 487.664 553.34C490.035 552.716 495.079 550.636 497.128 549.258C499.638 547.569 501.64 544.957 504.553 543.763L505.295 544.192L505.24 546.139C486.295 573.287 373.38 561.93 361.991 532.725Z" fill="#F9F9F6"/>
<path d="M244.82 565.436C246.47 565.394 247.354 565.219 248.853 565.918C249.667 570.006 249.48 593.472 249.513 599.607L249.475 685.515C247.699 685.532 247.445 685.612 245.689 685.158C244.85 683.478 245.327 650.295 245.316 644.752L244.82 565.436Z" fill="#F9F9F6"/>
<path d="M638.009 580.512C644.346 581.148 652.701 580.846 659.717 581.376C661.652 583.731 662.042 584.979 665.097 585.19C667.125 584.369 668.076 582.895 669.543 581.204C676.953 581.696 681.614 582.198 688.792 583.977C690.551 585.573 692.145 587.388 693.758 589.139C672.596 586.709 647.254 585.021 626.125 585.945C615.156 586.198 604.195 586.718 593.251 587.504C588.483 587.871 575.539 589.784 571.756 588.463L571.871 587.553C576.1 583.335 586.645 583.33 593.321 582.559C597.722 587.274 598.591 586.327 602.901 582.274C610.648 581.437 619.584 581.077 627.377 580.952C631.055 585.96 634.371 584.83 638.009 580.512Z" fill="#F9F9F6"/>
<path d="M237.786 694.893C238.569 695.853 238.825 698.112 238.549 699.35C238.131 701.224 161.949 799.568 159.238 801.6L158.287 800.215C158.298 799.755 158.309 799.295 158.32 798.835C176.212 774.413 221.426 714.647 237.786 694.893Z" fill="#F9F9F6"/>
<path d="M512.616 507.03L513.818 507.479C515.084 509.279 514.997 556.979 514.269 561.464L513.517 561.907C512.581 561.853 509.936 561.628 509.597 562.016C505.344 566.881 506.782 568.003 499.679 570.454L499.063 570.053L498.995 567.905C498.438 562.77 498.694 562.701 494.881 559.22C502.547 552.412 509.451 550.914 509.632 538.485C509.727 531.945 509.309 529.497 506.958 523.364C512.205 517.675 511.722 514.674 512.616 507.03Z" fill="#6CA6D6"/>
<path d="M796.638 696.537C798.838 698.291 806.284 708.113 808.5 710.938L831.473 740.251L861.381 778.319C863.618 781.145 878.312 799.068 878.828 801.392L877.638 802.746L876.971 802.767C875.284 802.04 861.143 783.47 858.751 780.436L821.569 733.042L804.516 711.445C801.685 707.856 798.662 704.017 796.026 700.24C795.285 699.178 796.093 698.055 796.638 696.537Z" fill="#F9F9F6"/>
<path d="M417.908 415.706C423.12 415.058 432.235 415.394 437.541 415.583L436.777 421.5C416.185 421.292 403.616 422.599 384.063 429.468C381.33 430.515 372.276 435.495 370.811 435.045C367.384 422.433 409.979 416.426 417.908 415.706Z" fill="#F9F9F6"/>
<path d="M745.815 735.072L746.258 735.535C743.672 739.676 724.39 769.815 722.486 770.648L722.068 769.41C720.665 761.06 719.424 752.684 718.346 744.286C727.849 741.278 736.421 738.478 745.815 735.072Z" fill="#F9F9F6"/>
<path d="M440.34 415.893C460.171 417.135 491.001 423.631 506.392 437.683C508.727 439.815 508.576 441.007 508.48 444.032C490.978 429.29 462.53 423.979 440.156 421.705L440.34 415.893Z" fill="#F9F9F6"/>
<path d="M245.446 446.43C247.249 446.762 247.785 446.542 248.972 447.564C249.745 455.362 249.314 471.37 249.33 479.604C249.382 501.929 249.26 524.253 248.965 546.576C247.015 546.502 247.005 546.807 245.597 545.919C244.969 542.814 245.175 530.8 245.309 527.054C246.258 500.627 244.121 472.73 245.446 446.43Z" fill="#F9F9F6"/>
<path d="M785.149 701.492C786.815 701.434 787.65 701.488 789.318 701.635C790.379 702.882 790.052 709.399 790.049 711.448C790.017 734.408 790.057 757.368 790.086 780.329C788.2 780.32 787.822 780.34 786.011 779.924C784.942 778.11 785.168 709.539 785.149 701.492Z" fill="#F9F9F6"/>
<path d="M637.554 671.457C641.198 673.663 643.882 697.242 644.364 701.682C645.224 709.607 642.935 740.423 637.991 745.85C636.392 745.019 636.217 744.973 634.783 743.77C635.149 739.901 636.649 736.318 637.401 732.518C639.133 723.764 639.839 715.546 639.664 706.608C639.574 701.065 639.059 695.538 638.123 690.074C637.269 684.884 635.318 679.399 634.955 674.324C634.851 672.869 636.302 672.304 637.554 671.457Z" fill="#F9F9F6"/>
<path d="M257.697 695.793C260.566 697.866 267.073 707.351 269.416 710.536C281.356 726.59 292.748 743.043 303.574 759.869C306.117 763.74 314.914 776.007 314.989 779.361C312.32 778.834 297.306 756.17 294.577 752.355C282.213 735.349 269.967 718.256 257.841 701.078L257.697 695.793Z" fill="#F9F9F6"/>
<path d="M626.389 561.233C627.366 561.169 626.833 561.12 627.97 561.513C628.907 564.078 628.298 570.391 628.143 573.356C620.224 573.519 611.821 574.123 603.876 574.587L602.764 574.492C601.321 572.658 601.96 565.286 602.036 562.511C610.145 561.933 618.264 561.506 626.389 561.233Z" fill="#F9F9F6"/>
<path d="M245.699 702.351C247.285 702.328 247.843 702.218 249.349 702.79C249.998 705.737 249.76 721.824 249.76 725.403L249.745 777.828C247.869 777.866 246.983 778.182 245.696 777.292C245.102 772.139 245.507 758.353 245.521 752.608L245.699 702.351Z" fill="#F9F9F6"/>
<path d="M785.332 482.514C787.609 482.585 788.117 482.225 789.782 483.231C790.338 487.984 790.033 500.602 790.028 505.827L789.979 548.988C788.227 548.96 787.416 549.065 785.759 548.433C785.235 546.419 785.387 532.184 785.379 529.114L785.332 482.514Z" fill="#F9F9F6"/>
<path d="M591.541 421.73C594.229 421.512 596.455 421.506 599.588 421.452C619.73 421.105 643.668 424.514 660.456 436.3C661.542 437.062 661.248 439.159 661.233 440.389C647.373 430.31 623.339 426.946 606.505 426.03C601.631 425.765 597.31 426.13 592.219 425.616C591.146 424.205 591.551 423.99 591.541 421.73Z" fill="#F9F9F6"/>
<path d="M578.962 602.528C592.53 610.173 604.215 617.792 614.397 629.891C617.267 633.302 628.621 646.613 629.077 650.675L627.788 651.791C627.114 651.928 626.344 652.085 625.478 652.261C624.267 651.235 620.922 646.263 620.107 645.067C607.739 626.916 596.452 617.455 577.993 606.037C577.71 604.946 578.445 603.849 578.962 602.528Z" fill="#F9F9F6"/>
<path d="M778.264 696.425L778.686 696.937C778.764 699.563 778.607 700.371 777.243 702.672C772.409 710.855 766.692 718.492 761.239 726.268C750.118 742.124 739.268 758.189 728.199 774.078C727.733 774.747 725.597 775.287 724.776 775.516C724.545 773.842 748.882 737.463 751.771 732.75C754.002 731.683 754.885 731.451 756.544 729.712C758.182 723.223 761.024 720.372 764.832 714.971C769.231 708.733 773.542 702.426 778.264 696.425Z" fill="#F9F9F6"/>
<path d="M635.892 561.004C644.109 560.918 652.327 561.099 660.533 561.546C660.518 565.515 660.446 569.484 660.316 573.451C652.36 573.608 643.921 573.441 635.928 573.413C635.564 568.717 635.68 565.752 635.892 561.004Z" fill="#F9F9F6"/>
<path d="M479.816 823.107C506.708 831.564 527.343 833.228 555.013 824.866C557.046 824.252 557.339 824.122 559.089 825.056C559.707 826.504 559.764 825.852 559.324 827.078C555.683 828.352 551.985 829.453 548.24 830.377C528.046 835.453 511.409 835.173 491.238 830.411C487.485 829.525 482.139 828.617 478.916 826.666C478.509 825.211 479.049 824.901 479.816 823.107Z" fill="#F9F9F6"/>
<path d="M399.833 672.862C400.957 673.653 402.563 674.562 403.776 675.294C398.576 695.069 395.955 713.655 400.556 733.754C401.094 736.104 403.192 743.867 402.742 745.72C400.601 745.816 401.426 746.16 399.985 745.194C397.591 740.815 396.866 735.464 396.003 730.599C391.958 707.785 394.289 694.437 399.833 672.862Z" fill="#F9F9F6"/>
<path d="M518.211 587.245C524.716 586.921 553.299 588.929 556.984 593.212C556.723 594.855 556.817 594.793 555.848 596.117C552.926 596.087 544.702 594.027 541.363 593.373C533.87 591.838 526.256 590.97 518.609 590.779C510.798 590.973 503.022 591.91 495.388 593.579C492.186 594.282 484.454 596.443 481.671 596.713C480.693 595.642 480.801 595.646 480.471 594.202C484.336 590.214 511.77 587.556 518.211 587.245Z" fill="#F9F9F6"/>
<path d="M410.013 509.711C414.697 509.478 425.505 508.461 428.899 511.086C430.145 514.7 422.267 513.682 419.754 513.697C404.435 513.794 389.457 515.23 374.799 519.96C369.114 521.983 366.487 523.649 361.886 527.395C362.537 525.834 363.596 523.407 364.728 522.184C374.026 512.134 397.382 510.595 410.013 509.711Z" fill="#F9F9F6"/>
<path d="M459.301 602.939C460.424 603.218 459.903 602.936 460.681 604.193C460.683 604.946 460.848 605.784 460.388 606.205C458.1 608.297 453.408 610.762 450.679 612.542C439 620.084 428.857 629.772 420.789 641.094C418.57 644.202 414.528 651.224 412.326 653.58C411.764 653.256 410.671 652.683 410.345 652.171C408.838 649.808 414.161 643.725 415.29 641.998C426.941 624.172 441.35 613.642 459.301 602.939Z" fill="#F9F9F6"/>
<path d="M432.309 510.401C452.931 511.119 485.763 518.658 502.171 532.011C504.381 533.809 505.106 534.879 505.255 537.595C487.339 525.011 472.762 519.997 451.146 516.144C445.28 515.099 438.035 515.124 432.417 513.927C431.721 512.465 432.072 512.315 432.309 510.401Z" fill="#F9F9F6"/>
<path d="M587.802 563.707C589.006 563.498 593.025 563.435 594.451 563.378L594.483 574.528C590.287 575.388 584.252 575.996 579.884 576.567L572.52 577.725L572.61 565.181C577.667 564.623 582.732 564.131 587.802 563.707Z" fill="#F9F9F6"/>
<path d="M659.446 533.978L659.822 534.694C655.008 544.916 628.003 551.998 617.801 553.294C595.954 556.068 557.475 556.774 539.798 543.357L538.918 542.462L539.113 542.178C568.401 559.725 633.134 555.587 659.446 533.978Z" fill="#F9F9F6"/>
<path d="M668.379 540.438C674.833 540.653 682.587 541.626 688.654 543.872C688.806 547.677 688.731 551.534 688.699 555.346C682.01 554.674 675.005 553.702 668.307 552.873L668.379 540.438Z" fill="#F9F9F6"/>
<path d="M595.41 608.406C599.638 608.942 607.856 615.53 611.547 618.13C623.722 626.706 633.597 634.692 637.614 649.483C635.976 649.379 634.259 649.428 632.608 649.437C620.859 630.689 612.273 622.277 595.41 608.406Z" fill="#F9F9F6"/>
<path d="M668.312 561.831C674.697 562.061 682.514 563.251 688.808 564.29C688.938 568.502 688.85 571.858 688.664 576.078C681.663 575.116 675.202 574.673 668.141 573.368L668.312 561.831Z" fill="#F9F9F6"/>
<path d="M411.634 765.854C415.169 770.424 417.728 775.895 421.29 780.438C429.657 791.112 439.447 801.645 451.247 808.566C454.245 810.325 457.326 812.174 460.189 814.156C460.312 815.52 459.591 816.219 458.794 817.4C446.424 810.144 435.164 801.143 425.362 790.673C422.024 787.069 410.035 773.322 409.668 767.527C409.632 766.962 410.972 766.299 411.634 765.854Z" fill="#F9F9F6"/>
<path d="M625.693 766.237L627.714 767.207C628.962 770.228 623.712 776.268 622.001 778.703C610.813 794.63 596.591 806.173 580.359 816.531C580.086 816.72 580.32 816.609 579.341 816.766L578.578 815.731C578.623 815.374 578.668 815.017 578.713 814.659C581.674 812.265 587.055 809.156 589.993 807.016C605.761 795.532 615.181 782.04 625.693 766.237Z" fill="#F9F9F6"/>
<path d="M513.807 482.712C517.826 482.443 522.347 482.48 526.412 482.425C526.514 485.804 527.169 496.455 525.809 498.859C521.667 499.084 517.724 499.092 513.585 499.108C513.357 495.229 512.431 485.873 513.807 482.712Z" fill="#F9F9F6"/>
<path d="M517.731 507.327C519.355 507.319 519.615 507.338 521.212 507.623C522.259 509.944 521.553 555.406 521.513 562.597C520.501 562.367 519.49 562.129 518.481 561.884C517.342 560.116 517.66 513.41 517.731 507.327Z" fill="#F9F9F6"/>
<path d="M583.342 422.671C586.02 422.245 586.862 421.915 588.632 424.108L588.525 424.818C588.169 425.208 587.814 425.599 587.458 425.989C579.707 428.051 572.16 428.383 564.366 430.861C554.457 434.012 549.269 436.077 540.264 440.876C538.753 441.828 538.689 441.932 536.92 442.501L536.255 442.101C537.217 432.423 575.409 423.869 583.342 422.671Z" fill="#F9F9F6"/>
<path d="M592.973 512.626C613.241 512.014 635.779 513.145 654.788 521.22C657.725 522.467 659.741 523.633 660.774 526.543C642.202 517.468 627.426 516.508 607.012 515.852C602.802 515.717 597.443 516.221 593.507 515.93C592.589 514.858 592.955 514.499 592.973 512.626Z" fill="#F9F9F6"/>
<path d="M365.494 602.492C376.193 603.935 388.934 604.172 399.764 605.093C404.449 605.491 409.703 605.114 414.398 605.798C415.27 607.311 414.956 607.499 415.002 609.52C404.921 609.621 375.197 608.168 366.074 605.922C365.107 604.84 365.488 604.438 365.494 602.492Z" fill="#F9F9F6"/>
<path d="M627.192 588.731C643.62 588.489 680.712 588.73 695.369 593.392C687.944 593.683 678.213 592.441 670.628 591.735C661.485 590.811 652.311 590.234 643.125 590.006C629.412 589.695 615.692 590.141 602.029 591.342C596.723 591.792 581.239 594.041 577.246 593.652L576.848 593.123C581.645 589.692 619.564 588.938 627.192 588.731Z" fill="#F9F9F6"/>
<path d="M597.213 506.726C607.926 506 655.463 508.864 659.187 519.268L658.678 519.806L657.391 519.216C638.103 510.742 618.022 508.962 597.342 509.634C595.206 509.704 594.138 509.798 592.922 508.563L593.016 507.671C594.206 506.752 595.641 506.857 597.213 506.726Z" fill="#F9F9F6"/>
<path d="M245.999 409.164C256.53 408.154 265.725 412.629 273.708 419.124L261.289 417.144C251.559 415.367 241.336 414.241 231.497 413.121C236.918 410.755 240.164 410.082 245.999 409.164Z" fill="#F9F9F6"/>
<path d="M779.907 551.99C785.172 551.838 789.389 551.867 794.636 552.031L794.604 563.512L779.59 563.496C779.572 559.659 779.678 555.821 779.907 551.99Z" fill="#F9F9F6"/>
<path d="M244.333 549.657L254.863 549.644C254.864 552.423 255.666 559.877 254.176 561.833L252.625 561.99C248.903 561.993 245.105 561.901 241.376 561.85C241.263 559.022 240.431 552.582 241.895 550.56C242.365 549.911 243.405 549.877 244.333 549.657Z" fill="#F9F9F6"/>
<path d="M686.964 595.91L688.521 596.209L688.285 596.766C663.587 607.87 611.876 610.536 585.718 602.611L583.599 601.447C583.993 601.013 589.568 602.149 590.767 602.341C619.317 606.912 660.064 607.464 686.964 595.91Z" fill="#F9F9F6"/>
<path d="M326.003 769.484C328.45 769.327 334.489 769.885 336.847 770.583C343.777 772.635 340.135 779.378 338.426 783.267C337.048 783.334 326.973 777.354 324.968 776.619C321.58 775.375 324.43 771.457 326.003 769.484Z" fill="#F9F9F6"/>
<path d="M728.771 777.63C734.745 776.988 734.542 778.779 736.404 783.828C732.44 785.902 728.646 788.231 724.81 790.531L721.834 792.136C716.675 781.959 718.448 779.429 728.771 777.63Z" fill="#F9F9F6"/>
<path d="M891.888 808.096C899.38 813.919 891.684 824.576 880.397 822.152C878.039 820.351 875.424 817.293 876.76 814.241C884.649 814.563 885.869 813.12 891.888 808.096Z" fill="#F9F9F6"/>
<path d="M798.011 471.735L802.726 471.688C799.611 474.231 796.702 476.788 793.686 479.449C790.326 479.512 783.078 480.042 780.32 478.638C777.156 476.241 775.629 474.871 772.778 472.091C781.11 471.872 789.642 471.883 798.011 471.735Z" fill="#F9F9F6"/>
<path d="M587.722 513.212L588.676 513.562L589.269 515.198C588.483 517.202 584.169 516.973 581.566 517.345C566.393 519.514 551.859 522.657 538.841 531.022L537.914 531.458L538.11 530.561C547.465 519.728 573.661 514.592 587.722 513.212Z" fill="#F9F9F6"/>
<path d="M583.605 507.684C585.489 507.398 588.74 506.72 589.443 508.963C587.896 510.158 580.681 510.993 578.344 511.377C565.859 513.427 553.597 516.633 542.508 522.887C540.94 523.92 540.542 524.279 538.702 524.835L538.153 524.408C540.533 515.741 574.519 508.816 583.605 507.684Z" fill="#F9F9F6"/>
<path d="M143.971 807.196C153.468 814.439 153.613 810.73 160.279 813.94L160.592 815.041C159.895 817.005 159.308 817.434 157.879 819.038C148.228 824.302 139.268 817.536 143.971 807.196Z" fill="#F9F9F6"/>
<path d="M432.35 505.657C446.86 504.198 487.727 515.401 499.77 523.923C503.113 526.288 504.747 526.696 505.661 530.718C488.005 518.236 472.585 513.544 451.453 509.151C447.383 508.305 435.944 508.053 432.853 506.883L432.35 505.657Z" fill="#F9F9F6"/>
<path d="M241.529 688.602C245.963 688.475 250.414 688.557 254.851 688.601L255.045 699.515C250.343 699.478 246.207 699.406 241.493 699.11C241.371 695.606 241.47 692.108 241.529 688.602Z" fill="#F9F9F6"/>
<path d="M501.635 477.209C503.516 477.059 508.456 477.369 510.581 477.456C510.518 480.715 510.718 484.104 509.676 487.125C508.377 488.336 508.9 487.97 506.625 488.026L496.434 487.731C496.439 484.621 495.967 480.975 497.212 478.444C499.05 476.946 498.745 477.432 501.635 477.209Z" fill="#F9F9F6"/>
<path d="M406.057 504.706C410.191 504.303 426.246 504.06 428.866 505.751L429.127 505.603C425.992 507.165 406.163 506.793 400.9 507.393C394.975 508.068 390.415 508.642 384.226 509.855C376.352 511.905 371.121 514.467 363.892 516.595C375.58 507.567 391.692 505.788 406.057 504.706Z" fill="#F9F9F6"/>
<path d="M547.13 454.422C553.593 454.799 554.067 456.748 554.134 463.03C554.228 471.94 554.29 481.049 553.937 489.937C550.915 495.331 549.306 496.144 543.314 495.421L543.27 494.084L543.974 493.457C545.7 493.98 545.673 493.981 547.473 494.023C554.2 491.025 550.315 465.856 550.69 459.194C550.8 457.241 547.694 456.886 546.307 456.011L547.13 454.422Z" fill="#F9F9F6"/>
<path d="M666.118 526.788C671.061 527.184 687.88 529.002 691.474 531.505C692.173 533.317 692.033 532.349 691.465 534.543C687.929 536.178 671.793 533.266 667.946 531.666C666.598 530.133 666.573 528.876 666.118 526.788Z" fill="#F9F9F6"/>
<path d="M364.738 597.601C367.871 597.164 414.586 600.272 414.719 600.333L415.381 602.363C405.653 603.397 377.742 600.836 366.615 599.541C365.449 599.405 365.251 598.536 364.738 597.601Z" fill="#F9F9F6"/>
<path d="M529.649 477.523L541.12 477.63C541.324 481.686 541.298 484.511 541.129 488.579C537.356 488.716 533.58 488.743 529.805 488.661C529.589 484.897 529.632 481.292 529.649 477.523Z" fill="#F9F9F6"/>
<path d="M483.8 454.844L484.353 455.534C483.913 457.12 483.569 458.73 483.324 460.357C482.107 468.674 481.338 478.903 481.473 487.274C481.58 493.909 490.12 492.662 492.359 495.631L491.834 496.485C484.146 496.029 478.943 495.284 479.014 486.067C479.082 477.025 479.49 467.661 480.765 458.688C481.1 456.33 482.021 456.02 483.8 454.844Z" fill="#F9F9F6"/>
<path d="M659.633 540.406L660.323 540.795C660.731 544.228 660.518 548.916 660.462 552.487C654.217 552.303 647.721 551.908 641.459 551.614C640.024 551.559 640.335 551.858 639.599 551.195C648.776 547.519 651.255 546.219 659.633 540.406Z" fill="#F9F9F6"/>
<path d="M395.676 760.897C396.265 761.838 396.183 761.51 396.384 762.434C396.56 763.245 364.531 824.909 361.325 830.191L360.629 829.283C367.595 814.042 376.499 798.412 384.137 783.401C386.152 779.442 393.988 763.137 395.676 760.897Z" fill="#F9F9F6"/>
<path d="M563.326 566.693L564.734 566.566C566.821 568.912 566.975 580.42 560.848 580.839C559.523 580.714 559.037 580.663 557.75 580.356C555.554 577.97 556.538 571.323 556.63 567.734C558.842 567.363 561.106 567.037 563.326 566.693Z" fill="#F9F9F6"/>
<path d="M546.736 458.856C549.105 461.34 547.928 483.744 547.804 488.252C547.761 489.798 546.846 490.339 545.778 491.148C543.504 487.631 544.361 470.327 544.141 465.121C544.003 461.862 544.637 460.73 546.736 458.856Z" fill="#F9F9F6"/>
<path d="M327.404 596.018C329.587 595.934 341.221 598.619 344.282 599.152C349.853 600.121 356.109 601.006 361.65 602.027C362.54 603.23 362.301 603.883 362.484 605.633C352.617 604.053 341.861 602.36 332.271 599.558C329.344 598.702 328.602 598.401 327.404 596.018Z" fill="#F9F9F6"/>
<path d="M438.146 605.28C441.851 605.046 445.78 604.968 449.508 604.831C443.301 609.62 436.413 609.216 428.625 609.506C425.626 609.589 421.061 609.914 418.317 609.109C417.993 607.376 417.849 608.174 418.829 606.649C422.167 604.804 433.363 605.377 438.146 605.28Z" fill="#F9F9F6"/>
<path d="M454.74 598.199C456.035 597.953 457.35 597.761 458.364 598.591L458.031 599.254C451.153 602.834 430.98 602.433 422.824 602.52C420.602 602.603 420.081 602.956 418.529 601.498L418.731 600.62C419.555 600.187 450.428 598.629 454.74 598.199Z" fill="#F9F9F6"/>
<path d="M782.082 689.527C785.907 689.361 789.791 689.483 793.622 689.553C793.572 693.238 793.59 694.812 792.908 698.446L781.486 698.477L782.082 689.527Z" fill="#F9F9F6"/>
<path d="M352.029 506.192C354.77 505.949 358.181 505.127 360.245 507.107L360.193 508.112C358.051 509.938 347.196 510.254 343.38 510.759C340.298 511.247 336.867 512.073 333.977 510.807C336.089 507.896 348.662 506.587 352.029 506.192Z" fill="#F9F9F6"/>
<path d="M640.371 764.739L641.473 765.243C644.258 768.915 672.875 826.44 673.553 829.596C671.967 828.083 642.064 769.068 640.371 764.739Z" fill="#F9F9F6"/>
<path d="M328.352 590.513C330.505 590.647 361.141 596.686 362.257 597.228L362.793 598.779C356.315 598.83 337.751 595.196 330.991 593.275C329.082 592.732 329.031 591.984 328.352 590.513Z" fill="#F9F9F6"/>
<path d="M407.72 654.245C409.535 654.926 409.514 654.913 411.067 656.071C411.111 657.259 405.811 669.807 405.032 671.903C403.109 671.344 402.513 671.232 401.608 669.809C401.412 664.724 405.269 658.812 407.72 654.245Z" fill="#F9F9F6"/>
<path d="M626.879 626.486C638.788 630.464 642.335 640.862 643.295 652.143C642.917 652.222 642.291 652.207 641.878 652.218C640.564 650.394 639.829 645.048 638.893 642.677C636.414 636.401 631.367 631.257 626.879 626.486Z" fill="#F9F9F6"/>
<path d="M636.046 554.62C643.699 555.184 652.073 554.657 659.662 555.702C660.733 556.579 660.399 556.657 660.66 558.498C653.905 558.37 642.992 558.48 636.586 557.794C635.77 556.58 636.071 556.374 636.046 554.62Z" fill="#F9F9F6"/>
<path d="M486.694 459.213L487.616 459.81C488.814 462.402 487.633 486.538 487.121 490.334C486.234 489.82 486.231 489.712 485.47 488.994C483.821 484.28 485.7 464.692 486.694 459.213Z" fill="#F9F9F6"/>
<path d="M633.821 747.37C635.186 747.993 635.463 748.174 636.711 749.022C637.307 751.558 632.253 762.205 630.753 764.713C628.589 763.821 628.637 764.214 627.361 762.628L633.821 747.37Z" fill="#F9F9F6"/>
<path d="M403.42 747.86C404.692 749.029 409.098 759.735 410.227 762.331C409.725 763.668 409.009 763.638 407.364 764.55C405.46 763.618 400.489 752.244 401.107 749.577C401.291 748.783 402.709 748.262 403.42 747.86Z" fill="#F9F9F6"/>
<path d="M551.013 552.608C551.923 552.912 552.071 553.021 552.928 553.461C554.309 556.617 553.488 576.753 553.385 581.421L552.027 580.901C550.638 578.278 551.023 556.997 551.013 552.608Z" fill="#F9F9F6"/>
<path d="M629.883 653.845C632.353 655.506 635.671 664.73 636.47 667.78C635.912 669.122 635.204 669.092 633.557 669.992C632.212 668.421 627.062 656.529 627.502 655.009L629.883 653.845Z" fill="#F9F9F6"/>
<path d="M366.804 446.473C369.012 446.522 369.492 446.165 371.1 447.133C372.838 450.574 371.19 455.32 370.372 459.334C368.655 459.406 368.693 459.383 367.012 458.964C364.976 456.218 366.409 450.266 366.804 446.473Z" fill="#F9F9F6"/>
<path d="M574.714 816.45C576.257 817.218 576.431 817.741 576.308 819.274C574.26 822.059 567.589 824.584 564.144 826.106L563.477 825.885C562.008 824.228 562.265 825.115 562.144 823.321C563.197 821.21 572.098 817.68 574.714 816.45Z" fill="#F9F9F6"/>
<path d="M463.428 815.772C467.496 817.661 473.33 819.14 475.915 821.984C476.129 823.847 475.848 823.55 474.705 825.589C470.544 823.612 465.723 822.243 462.534 819.182C462.12 817.481 462.387 817.829 463.428 815.772Z" fill="#F9F9F6"/>
<path d="M560.83 594.239C564.853 595.891 571.249 597.532 574.574 600.391C575.684 601.345 575.052 602.806 574.778 604.318C570.999 602.512 561.255 599.361 559.935 596.608L560.83 594.239Z" fill="#F9F9F6"/>
<path d="M573.287 557.908C576.418 557.916 591.696 557.404 593.025 559.469L592.015 560.268C587.827 560.691 577.236 561.948 573.495 561.69C572.793 560.196 573.141 559.814 573.287 557.908Z" fill="#F9F9F6"/>
<path d="M626.777 555.215L627.846 555.221C628.509 556.583 628.371 555.867 628.141 557.465C627.859 557.714 627.577 557.963 627.295 558.212C620.533 558.443 610.312 559.059 603.882 559.522L602.969 559.367L602.469 558.56C603.424 557.697 623.781 555.572 626.777 555.215Z" fill="#F9F9F6"/>
<path d="M488.294 455.379C497.022 455.906 494.443 468.335 494.05 474.639C492.434 474.572 492.94 474.76 491.546 474.152C489.08 468.129 495.095 462.067 488.294 455.379Z" fill="#F9F9F6"/>
<path d="M475.67 594.934C476.919 595.32 477.279 596.181 477.461 597.274C476.222 599.847 468.244 602.762 465.234 604.107L464.595 604.233C463.546 603.069 463.98 603.721 463.661 601.973C464.801 599.44 472.547 596.502 475.67 594.934Z" fill="#F9F9F6"/>
<path d="M658.045 496.47C660.856 496.533 660.657 496.079 662.577 497.399C664.097 500.267 663.235 504.105 662.927 507.514C660.651 507.498 659.951 507.759 658.527 506.481C657.383 503.706 657.967 499.763 658.045 496.47Z" fill="#F9F9F6"/>
<path d="M663.658 541.197L664.645 541.765C665.853 545.688 665.227 566.263 665.176 571.543C665.064 571.76 664.608 572.213 664.419 572.419L663.747 571.996C663.068 568.557 663.462 545.434 663.658 541.197Z" fill="#F9F9F6"/>
<path d="M507.099 453.48C508.263 453.424 510.185 453.162 510.906 454.06C512.729 456.332 511.429 461.94 511.066 464.705C509.931 464.717 507.943 464.9 507.148 464.035C505.318 462.046 506.673 456.385 507.099 453.48Z" fill="#F9F9F6"/>
<path d="M659.542 447.2L661.539 447.705C663.636 449.839 663.539 457.673 661.745 460.229L659.463 459.595C657.273 457.165 657.116 449.746 659.542 447.2Z" fill="#F9F9F6"/>
<path d="M430.692 479.448C433.088 479.494 433.47 479.131 434.998 480.811C435.694 483.354 434.699 487.798 434.38 490.644C431.841 490.561 431.396 490.825 429.929 489.325C429.116 486.663 430.224 482.491 430.692 479.448Z" fill="#F9F9F6"/>
<path d="M587.976 438.977C589.042 438.917 590.972 438.675 591.639 439.546C593.523 442.006 592.517 447.704 592.308 450.621C591.305 450.582 589.404 450.656 588.82 450.022C586.836 447.867 587.594 441.73 587.976 438.977Z" fill="#F9F9F6"/>
<path d="M667.925 555.889C673.78 556.476 681.996 556.987 687.654 558.703C688.694 559.019 688.458 559.237 688.981 560.526C684.721 560.566 672.774 559.73 668.581 558.075C667.949 557.826 668.067 556.889 667.925 555.889Z" fill="#F9F9F6"/>
<path d="M248.889 780.782C250.692 780.584 251.321 780.389 253.082 780.918C254.457 782.206 254.225 781.48 254.301 782.985C252.239 785.809 250.318 785.168 247.125 785.102L246.504 785.126C243.74 785.214 242.954 785.426 241.053 783.632C242.028 780.668 246.417 780.833 248.889 780.782Z" fill="#F9F9F6"/>
<path d="M435.695 431.461C439.267 431.46 440.106 432.243 439.793 436.029C439.588 438.511 439.152 441.138 438.881 443.641C437.381 443.61 437.098 443.718 435.717 443.1C433.904 440.315 435.215 434.945 435.695 431.461Z" fill="#F9F9F6"/>
<path d="M511.102 565.169C515.631 565.302 525.211 564.914 529.629 565.999C530.19 566.137 530.125 567.2 530.248 568.052C526.337 568.086 513.219 568.743 510.761 566.722L511.102 565.169Z" fill="#F9F9F6"/>
<path d="M588.479 483.821C591.006 483.918 591.002 483.482 592.55 484.741C593.587 487.303 593.189 491.541 593.281 494.514C590.935 494.679 590.491 494.889 588.973 493.627C588.279 491.992 588.178 491.832 588.249 490.092L588.479 483.821Z" fill="#F9F9F6"/>
<path d="M504.234 507.374C506.646 507.373 507.539 506.929 509.128 508.777C509.697 511.073 508.683 514.426 508.169 516.901C506.08 517.323 505.386 517.707 503.986 515.978C503.292 513.33 503.92 510.188 504.234 507.374Z" fill="#F9F9F6"/>
<path d="M783.092 436.473C785.589 436.426 789.098 435.856 790.943 437.013C792.016 438.561 791.648 440.062 791.549 442.035C788.868 441.84 785.747 442.472 783.724 441.419C782.641 439.466 783.041 438.925 783.092 436.473Z" fill="#F9F9F6"/>
<path d="M364.223 494.353C370.869 494.573 368.333 500.298 367.442 505.199C361.289 504.008 363.117 499.546 364.223 494.353Z" fill="#F9F9F6"/>
<path d="M692.031 544.305C694.22 546.19 693.201 572.876 692.766 576.595C690.916 573.408 691.463 548.577 692.031 544.305Z" fill="#F9F9F6"/>
<path d="M327.227 574.705C328.911 574.976 329.655 574.919 330.905 576.069C332.079 578.757 330.847 582.5 330.231 585.511C328.033 585.341 327.809 585.42 326.602 584.112C325.654 580.91 326.559 578.027 327.227 574.705Z" fill="#F9F9F6"/>
<path d="M352.874 512.717C354.348 512.569 355.507 512.259 356.438 513.419C354.474 514.905 342.748 515.889 338.997 516.575C337.797 516.691 336.778 516.736 335.581 516.791L334.821 516.067L335.278 515.241C339.385 513.571 348.153 513.132 352.874 512.717Z" fill="#F9F9F6"/>
<path d="M532.575 452.205C538.692 453.503 537.345 459.425 535.962 464.192C534.817 464.27 535.223 464.164 533.876 463.342C531.832 460.367 532.488 455.955 532.575 452.205Z" fill="#F9F9F6"/>
<path d="M362.953 577.443C369.772 577.213 367.354 582.168 366.413 587.309C360.429 587.331 362.408 581.809 362.953 577.443Z" fill="#F9F9F6"/>
<path d="M415.15 578.974C417.448 578.93 417.241 578.589 418.979 579.539C420.192 581.999 419.583 585.65 419.46 588.655C417.862 588.648 416.753 588.875 415.565 587.903C414.282 585.333 414.954 582.045 415.15 578.974Z" fill="#F9F9F6"/>
<path d="M249.698 400.407C252.094 400.542 255.438 400.42 257.195 401.805C258.125 403.874 257.691 403.935 257.414 406.587C254.78 406.022 252.111 406.479 250.143 405.201C249.124 403.101 249.543 403.114 249.698 400.407Z" fill="#F9F9F6"/>
<path d="M331.13 520.198C337.128 521.36 334.819 525.754 333.834 530.727C332.319 530.848 332.22 530.971 330.804 530.524C329.172 527.745 330.524 523.495 331.13 520.198Z" fill="#F9F9F6"/>
<path d="M490.564 477.215C491.381 477.346 492.197 477.485 493.011 477.631C495.308 480.818 492.347 484.779 492.985 490.209C494.15 491.985 493.925 491.47 496.212 492.503L495.503 492.942C488.558 489.739 490.373 483.98 490.564 477.215Z" fill="#F9F9F6"/>
<path d="M459.069 578.18C460.227 578.247 460.553 578.342 461.692 578.612C463.789 580.906 463.045 585.065 462.909 588.273C460.49 588.001 460.681 588.433 459.346 587.09C458.307 584.429 458.869 581.154 459.069 578.18Z" fill="#F9F9F6"/>
<path d="M534.963 506.135L536.143 506.624C537.789 508.418 537.675 516.562 536.163 518.606C532.883 515.76 532.311 509.52 534.963 506.135Z" fill="#F9F9F6"/>
<path d="M576.689 823.446C577.082 823.532 577.806 824.092 578.2 824.355L578.255 825.699C576.94 827.838 571.733 829.48 569.169 830.508C567.751 829.886 568.305 830.343 567.41 829.129C568.213 827.074 574.343 824.584 576.689 823.446Z" fill="#F9F9F6"/>
<path d="M470.165 590.464C471.715 591.148 471.154 590.632 472.027 591.92C470.991 594.245 466.246 595.95 463.746 597.107C462.935 597.042 462.838 596.836 462.027 596.392L461.997 595.571C463.316 592.723 467.306 591.555 470.165 590.464Z" fill="#F9F9F6"/>
<path d="M782.446 783.19C785.79 783.288 788.393 782.555 791.406 783.375C792.795 784.594 792.349 784.242 792.637 786.672C788.995 786.581 785.066 787.728 782.56 785.513L782.446 783.19Z" fill="#F9F9F6"/>
<path d="M563.856 589.167C566.506 589.587 571.247 591.525 573.492 593.15C574.137 594.826 573.998 593.91 573.311 596.056C570.808 595.017 563.98 593.017 562.92 590.784L563.856 589.167Z" fill="#F9F9F6"/>
<path d="M514.954 476.72C517.726 476.708 523.903 476.53 526.246 477.769L526.158 478.666L524.879 479.105C524.41 479.158 523.939 479.207 523.469 479.252C520.815 479.505 515.398 480.095 513.454 478.486L513.576 477.643L514.954 476.72Z" fill="#F9F9F6"/>
<path d="M460.89 822.37C463.937 824.244 467.841 825.16 470.203 827.554C470.749 828.108 470.323 828.789 470.085 829.942C467.548 829.005 461.807 827.316 460.465 825.088C460.07 824.432 460.627 823.307 460.89 822.37Z" fill="#F9F9F6"/>
<path d="M615.82 576.707C619.466 576.439 622.228 576.364 625.892 576.91C622.924 578.051 617.642 578.227 614.393 578.427C610.787 578.551 607.179 578.602 603.571 578.58C604.745 577.442 613.739 576.859 615.82 576.707Z" fill="#F9F9F6"/>
<path d="M637.707 576.746C638.021 576.698 639.048 576.534 639.34 576.546C644.016 576.741 656.478 575.014 659.617 577.757C655.3 578.338 641.464 578.463 637.707 576.746Z" fill="#F9F9F6"/>
<path d="M402.768 653.379C404.413 655.094 399.022 665.334 397.924 667.694L397.133 666.241C396.975 662.316 400.579 656.575 402.768 653.379Z" fill="#F9F9F6"/>
<path d="M492.739 563.609L494.174 564.092C496.265 566.139 496.221 571.565 494.865 573.97C491.111 573.808 492.468 566.309 492.739 563.609Z" fill="#F9F9F6"/>
<path d="M597.438 558.11L598.65 558.599C599.847 560.946 599.032 570.987 598.695 573.893C596.243 572.216 597.163 561.155 597.438 558.11Z" fill="#F9F9F6"/>
<path d="M631.445 553.621L632.158 554.12C633.266 556.098 632.677 570.058 632.27 572.941L631.483 572.2C630.417 569.358 631.282 557.183 631.445 553.621Z" fill="#F9F9F6"/>
<path d="M633.848 652.149C637.738 653.412 640.695 662.268 639.878 665.44C637.866 664.263 634.882 654.916 633.848 652.149Z" fill="#F9F9F6"/>
<path d="M640.04 751.27L640.759 752.066C641.052 755.107 637.239 763.187 635.524 765.708L634.986 765.299C634.542 763.071 638.841 753.991 640.04 751.27Z" fill="#F9F9F6"/>
<path d="M540.264 464.831L540.871 465.559C541.163 468.822 541.421 471.052 540.649 474.229L539.19 475.071C536.538 472.288 537.847 467.472 540.264 464.831Z" fill="#F9F9F6"/>
<path d="M597.263 576.262C599.185 576.571 599.707 576.773 600.725 578.168C600.757 580.009 599.861 580.765 598.709 582.26L597.964 582.333C594.584 580.505 595.286 578.82 597.263 576.262Z" fill="#F9F9F6"/>
<path d="M397.397 753.243C399.747 754.713 402.422 763.245 403.558 766.305C399.817 765.434 397.714 756.587 397.397 753.243Z" fill="#F9F9F6"/>
<path d="M586.479 578.668C588.067 578.444 589.027 578.461 590.605 578.455L590.981 578.872C587.747 580.169 584.492 580.417 581.035 580.876C578.713 581.312 578.086 581.352 575.72 581.305L575.702 580.9C579.454 579.499 582.507 579.228 586.479 578.668Z" fill="#F9F9F6"/>
<path d="M663.9 575.182C665.488 575.883 666.414 576.061 667.241 577.555C667.292 579.261 666.288 580.318 665.306 581.807L664.614 581.852C661.607 580.11 662.293 577.725 663.9 575.182Z" fill="#F9F9F6"/>
<path d="M509.114 492.184C509.902 492.761 509.672 492.624 510.242 493.497C510.691 496.759 510.85 501.542 510.023 504.735C509.017 504.186 509.378 504.432 508.636 503.467C508.084 499.225 508.426 496.364 509.114 492.184Z" fill="#F9F9F6"/>
<path d="M562.346 560.645C564.587 560.484 563.658 560.198 565.367 561.06L565.251 561.869C563.459 563.555 562.65 563.393 560.046 563.723C558.556 563.988 557.816 564.203 556.718 563.186C558.027 560.843 559.879 560.926 562.346 560.645Z" fill="#F9F9F6"/>
<path d="M556.82 554.183C559.077 554.555 562.719 555.122 564.634 556.203L564.39 556.999C562.373 557.58 559.554 558.719 557.704 558.136C556.496 556.556 556.91 556.647 556.82 554.183Z" fill="#F9F9F6"/>
<path d="M631.586 575.687C632.474 575.389 633.453 575.594 634.148 576.222C634.843 576.85 635.144 577.804 634.937 578.718C634.731 579.631 634.047 580.362 633.149 580.629C631.793 581.033 630.364 580.275 629.938 578.927C629.511 577.578 630.244 576.136 631.586 575.687Z" fill="#F9F9F6"/>
<path d="M670.319 536.661C674.355 535.985 683.146 537.317 686.856 538.872C683.523 539.391 673.433 538.398 670.319 536.661Z" fill="#F9F9F6"/>
<path d="M692.745 536.17C694.335 537.137 694.755 537.258 695.765 538.861C695.735 540.866 696.042 539.94 694.487 541.613C692.347 541.323 691.619 541.511 690.557 539.564C690.765 537.984 691.633 537.361 692.745 536.17Z" fill="#F9F9F6"/>
<path d="M670.532 577.182C674.095 577.073 685.38 578.253 688.222 580.084C685.039 579.794 672.128 578.918 670.532 577.182Z" fill="#AAA8AB"/>
<path d="M514.731 502.26C517.198 502.084 523.356 501.398 525.315 502.36L525.386 503.569C522.603 503.728 517.33 504.251 514.944 503.192L514.731 502.26Z" fill="#F9F9F6"/>
<path d="M568.414 580.588C569.264 580.355 570.172 580.621 570.761 581.276C571.351 581.93 571.521 582.861 571.202 583.682C570.882 584.503 570.127 585.074 569.25 585.157C568.045 585.271 566.954 584.445 566.736 583.256C566.519 582.066 567.247 580.907 568.414 580.588Z" fill="#F9F9F6"/>
<path d="M692.824 579.202C694.454 579.708 694.589 579.611 695.718 580.939C695.779 583.171 695.706 582.552 694.508 584.798C692.967 583.781 692.906 583.837 691.77 582.281C691.641 580.181 691.438 581.208 692.824 579.202Z" fill="#F9F9F6"/>
<path d="M663.981 534.177C665.617 534.581 665.717 534.595 667.214 535.347L667.555 536.43L666.637 538.037C665.211 538.34 664.832 538.584 663.474 538.109C662.981 536.471 663.435 536.166 663.981 534.177Z" fill="#F9F9F6"/>
<path d="M569.054 565.261C570.361 567.187 569.538 574.911 569.382 577.667L568.635 576.74C568.36 573.743 568.126 568.056 569.054 565.261Z" fill="#F9F9F6"/>
<path d="M642.176 758.366C644.658 758.999 647.153 759.85 648.34 762.252C644.326 762.993 643.773 761.979 642.176 758.366Z" fill="#F9F9F6"/>
<path d="M554.754 239.742C555.806 240.376 555.511 240.174 556.373 241.066C557.039 244.275 556.494 246.411 555.875 249.648C555.126 246.613 554.848 242.862 554.754 239.742Z" fill="#F9F9F6"/>
<path d="M377.306 233.603C387.285 240.53 394.956 281.507 398.061 294.096C398.697 296.674 398.348 297.262 400.112 298.351L400.031 298.491C401.932 295.572 400.89 292.666 400.204 289.319C411.539 295.826 430.97 304.22 443.828 306.267C453.356 307.784 463.663 307.994 473.494 310.004C480.678 311.472 489.007 315.331 495.537 316.272C498.622 321.946 502.579 326.31 508.026 329.803C515.987 334.908 525.646 336.653 534.89 334.655C544.004 332.596 549.582 327.729 554.398 320.072C565.579 323.351 577.457 328.212 588.196 333.087C608.61 342.353 613.594 368.715 621.75 387.567C625.795 396.919 630.492 408.835 633.583 418.463C632.709 419.192 631.303 420.127 630.34 420.815C614.15 418.875 610.163 418.316 593.373 418.494C594.849 407.905 595.611 397.092 596.868 386.473C597.08 384.676 596.96 384.084 595.994 382.888L594.873 382.8C593.082 385.058 592.069 411.434 590.343 418.093C589.226 419.08 587.22 419.063 585.626 419.237C570.473 421.059 544.004 427.836 532.869 438.769C532.876 442.112 532.986 445.981 532.649 449.256C531.72 449.986 531.218 450.415 530.369 451.235C528.063 458.277 529.48 464.057 534.817 468.964L534.761 474.622C525.061 474.347 519.261 473.159 508.729 473.647C508.74 471.868 508.737 471.195 509.034 469.459C510.544 467.826 510.815 468.188 513.329 467.432C514.209 463.752 515.134 457.471 514.46 453.782C514.005 451.291 513.346 451.286 511.444 449.927C511.61 446.103 511.766 442.585 511.705 438.759C497.842 422.995 469.916 416.515 449.838 413.628C448.842 403.167 447.314 392.763 445.259 382.457C447.636 384.518 449.29 387.596 452.129 387.911L452.625 386.997C451.285 376.362 399.565 351.558 388.864 344.741C379.503 338.858 367.951 332.537 360.292 324.509C351.556 315.352 349.439 295.082 347.328 282.842C345.474 272.091 343.807 260.938 343.593 250.15C343.522 246.554 344.811 243.069 346.237 239.865C346.859 239.981 347.481 240.091 348.104 240.194C359.547 242.156 368.002 240.241 377.306 233.603Z" fill="#8BB484"/>
<path d="M535.276 236.192C541.548 235.626 545.729 236.627 551.463 238.853C552.015 242.315 552.376 245.806 552.542 249.308C553.328 264.007 552.872 284.573 542.141 296.032C529.539 309.489 516.461 305.289 504.9 293.994C497.529 285.398 497.924 279.285 494.272 274.702L493.567 274.918L492.428 277.62C485.44 278.723 479.175 260.98 487.39 259.307C489.147 258.949 492.315 262.526 493.482 263.694C494.535 258.089 495.298 251.887 496.071 246.211C508.164 248.994 511.072 243.754 521.912 239.326C526.975 237.258 529.911 236.708 535.276 236.192Z" fill="#F9F9F6"/>
<path d="M513.044 280.075C519.215 279.976 527.54 279.433 533.673 280.009C535.201 280.152 535.965 281.337 536.601 282.493C536.561 285.705 535.041 287.19 533.144 289.813C524.232 298.168 513.734 290.391 513.044 280.075Z" fill="black"/>
<path d="M525.773 255.124C527.183 255.339 527.173 255.233 528.263 256.108C528.539 259.656 530.867 271.629 530.708 273.16C529.533 274.974 528.759 275.124 526.728 276.137C525.125 275.596 524.908 275.653 523.674 274.458C524.303 272.919 525.594 272.92 527.601 271.497C526.394 264.653 524.891 262.261 525.773 255.124Z" fill="black"/>
<path d="M510.091 255.784C512.424 255.777 512.742 256.046 514.204 257.62C515.11 260.392 514.592 261.822 513.285 264.397C507.533 264.337 508.371 259.435 510.091 255.784Z" fill="black"/>
<path d="M536.878 254.216C542.301 255.178 541.159 259.164 539.338 262.823C537.614 262.724 537.584 262.825 536.055 261.888C533.869 258.972 534.73 256.822 536.878 254.216Z" fill="black"/>
<path d="M537.571 246.14C540.356 246.174 541.77 246.384 543.098 248.839L542.776 249.818C540.987 250.265 541.629 250.179 539.565 249.261C537.25 249.497 533.769 250.289 532.134 248.273L532.574 247.577C534.48 246.37 535.253 246.45 537.571 246.14Z" fill="black"/>
<path d="M512.217 247.657C513.916 247.784 516.463 248.437 516.624 250.401C515.078 251.236 511.759 250.87 509.875 250.815C507.444 251.445 507.411 251.87 505.353 251.296L505.179 250.44C507.602 247.727 508.52 247.999 512.217 247.657Z" fill="black"/>
<path d="M339.886 138.413C346.623 142.58 349.343 168.231 354.838 169.696C358.947 165.714 352.062 141.47 356.839 139.36C360.728 143.018 364.347 170.912 367.208 179.751L367.526 180.719C361.051 182.332 355.895 185.114 353.777 192.164C353.109 194.386 352.107 197.545 353.215 199.554L354.485 199.822C355.888 198.695 355.852 193.612 357.97 190.244C360.681 184.394 365.842 185.282 370.204 182.415C373.763 180.075 379.055 165.017 385.757 170.134C385.562 173.485 381.836 175.603 380.078 179.824C374.734 192.65 377.71 195.761 368.775 207.64C369.196 212.241 369.697 214.513 370.723 219.085C371.604 223.787 372.658 227.817 373.864 232.426C368.182 236.718 356.309 239.946 349.6 237.023C348.548 236.564 346.991 216.347 346.75 213.827C334.91 203.451 335.253 196.75 330.405 182.575C329.09 178.729 319.963 165.022 322.155 161.715C325.917 162.988 331.32 175.133 335.617 176.905L336.259 176.497C337.365 170.389 326.312 152.02 329.774 147.046L330.87 146.975C335.419 153.459 340.158 167.946 343.981 171.738L344.637 171.638C345.205 166.49 340.103 152.536 339.214 146.717C338.631 142.9 337.719 141.615 339.886 138.413Z" fill="#F9F9F6"/>
<path d="M358.477 171.675L359.218 171.644C360.512 172.426 360.073 171.892 360.606 173.279C359.522 174.331 349.751 176.318 346.758 177.61C342.585 179.412 341.361 179.958 337.202 182.431C336.261 182.489 336.764 182.583 335.766 181.888C334.933 176.518 354.252 172.27 358.477 171.675Z" fill="black"/>
<path d="M516.352 201.168C536.707 198.793 551.462 205.284 554.95 226.944C539.616 222.61 526.854 223.195 512.058 228.988C508.384 230.5 504.405 232.484 501.083 234.645C495.177 238.486 492.61 241.744 485.783 244.123C482.505 220.761 492.344 204.654 516.352 201.168Z" fill="#FFAE3D"/>
<path d="M693.708 357.155C694.899 357.756 694.854 357.886 695.604 359.006C699.566 366.155 690.854 368.676 694.057 375.804C696.549 381.35 691.306 381.199 694.547 389.926C693.757 393.286 689.462 403.411 690.688 405.513L691.791 405.199C693.99 402.356 695.041 398.866 696.405 395.461C696.555 398.295 695.763 404.78 698.958 406.407C703.11 408.522 702.837 411.036 703.414 415.093C695.208 418.256 694.539 418.514 688.858 425.068C687.287 426.797 685 428.952 683.297 430.641C673.233 426.643 668.424 420.804 666.648 410.026C673.592 403.666 678.436 402.305 678.152 392.104C678.083 389.641 678.65 385.84 679.558 383.536C681.762 377.942 686.303 373.36 689.151 368.18C691.083 364.665 691.677 360.998 693.708 357.155Z" fill="#F9F9F6"/>
<path d="M504.703 298.337C518.348 309.504 527.135 310.487 542.019 301.027C542.045 303.739 542.145 306.821 542.095 309.494C541.962 316.705 545.371 317.326 551.204 319.209C549.309 322.549 548.019 323.877 545.399 326.459C533.393 335.403 518.021 334.064 506.428 325.043C504.196 323.306 500.373 319.073 499.227 316.561C500.021 315.517 502.206 315.153 503.73 314.681C504.621 310.053 504.593 303.217 504.703 298.337Z" fill="#F9F9F6"/>
<path d="M662.917 409.671C666.071 411.555 662.413 425.244 682.877 433.874C679.796 445.203 674.071 451.388 665.977 459.792C665.949 456.044 665.758 452.414 665.572 448.672C665.09 445.733 664.638 436.274 663.519 434.881C658.83 429.046 640.8 423.595 634.289 422.049C644.443 415.213 650.689 411.103 662.917 409.671Z" fill="#8BB484"/>
<path d="M532.316 227.2C539.166 226.507 567.309 229.52 565.988 239.422C564.962 240.593 565.367 240.786 562.538 239.708C548.479 234.354 542.716 231.747 527.602 234.326C520.483 236.347 517.358 238.337 510.902 241.621C504.359 244.95 501.459 244.708 495.076 242.475C505.106 233.624 519.074 228.413 532.316 227.2Z" fill="#FFAE3D"/>
<path d="M676.181 248.85C676.217 248.881 676.256 248.909 676.289 248.943C679.639 252.444 701.764 354.419 702.245 362.063C700.639 362.749 701.251 362.821 699.828 362.655C698.891 358.174 696.487 354.016 695.723 350.012C690.943 324.587 684.867 299.422 679.683 274.09C678.067 266.194 677.191 256.907 676.181 248.85Z" fill="#F9F9F6"/>
<path d="M711.556 374.058C713.271 373.881 713.335 373.767 715.008 374.364C723.236 382.559 705.873 384.652 700.618 386.717C698.712 387.587 698.207 387.783 696.446 386.859C693.883 379.672 706.568 375.551 711.556 374.058Z" fill="#F9F9F6"/>
<path d="M714.165 385.579C715.024 385.527 715.845 385.588 716.711 385.62C719.997 387.753 719.354 391.805 715.769 392.911C711.515 394.224 706.553 395.158 702.252 396.242C699.877 396.657 699.434 397.106 697.987 395.159C697.241 388.747 709.285 386.795 714.165 385.579Z" fill="#F9F9F6"/>
<path d="M706.694 363.035C710.454 362.884 714.529 363.764 713.454 368.524C711.271 371.319 705.675 372.563 701.905 373.998C699.992 374.88 699.013 375.352 697.067 374.685C694.985 369.757 702.893 364.777 706.694 363.035Z" fill="#F9F9F6"/>
<path d="M716.136 396.125C716.463 396.073 716.798 396.102 717.128 396.1C718.354 396.094 718.249 396.361 719.078 397.18C720.065 399.938 719.309 402.104 717.005 403.785C714.229 401.953 709.357 404.065 705.181 404.685C702.56 404.775 701.612 405.14 699.748 403.229C698.845 398.305 712.316 396.918 716.136 396.125Z" fill="#F9F9F6"/>
<path d="M556.433 256.656C565.097 257.483 561.116 268.216 557.964 272.714C556.925 273.576 556.334 274.316 555.033 274.335C554.67 271.22 555.719 259.823 556.433 256.656Z" fill="#F9F9F6"/>
<path d="M492.847 244.49L493.151 245.001C493.303 247.838 492.297 253.952 491.423 256.713C490.371 257.153 489.346 256.531 487.927 256.115C487.101 253.682 486.668 249.851 486.267 247.216L492.847 244.49Z" fill="#F9F9F6"/>
<path d="M705.265 407.478C706.338 407.49 707.866 407.274 708.535 407.834C710.761 409.699 711.031 415.774 711.376 418.851C709.795 419.278 709.795 419.422 708.246 419.047C705.741 416.497 705.701 411.22 705.265 407.478Z" fill="#F9F9F6"/>
<path d="M673.905 240.622C678.551 241.319 678.072 244.337 676.929 247.782C672.457 247.568 672.651 243.718 673.905 240.622Z" fill="#F9F9F6"/>
<path d="M513.363 195.911C515.291 196.199 515.253 196.246 517.028 197.141L517.03 197.84L515.374 198.285C513.693 198.582 513.185 198.754 511.452 198.539C511.59 197.189 512.11 197.153 513.363 195.911Z" fill="#F9F9F6"/>
<path d="M797.442 554.237C800.565 553.862 802.792 553.247 805.229 555.106C802.334 555.759 799.595 556.376 797.442 554.237Z" fill="#F9F9F6"/>
<path d="M439.785 808.749L440.661 809.653C440.761 811.299 439.868 812.286 438.966 813.745C438.276 813.582 438.244 813.489 437.606 813.144C437.53 811.762 438.948 810.029 439.785 808.749Z" fill="#F9F9F6"/>
</g>
<defs>
<clipPath id="clip0_85_493">
<rect width="1024" height="1024" fill="white"/>
</clipPath>
</defs>
</svg>
